<?xml version="1.0" encoding="UTF-8" standalone="no"?>
<!DOCTYPE svg PUBLIC "-//W3C//DTD SVG 1.1//EN"
 "http://www.w3.org/Graphics/SVG/1.1/DTD/svg11.dtd">
<!-- Generated by graphviz version 15.0.0 (20260523.1842)
 -->
<!-- Title: FunctionPanel::onExtractAudio Pages: 1 -->
<svg width="932pt" height="87pt"
 viewBox="0.00 0.00 932.00 87.00" xmlns="http://www.w3.org/2000/svg" xmlns:xlink="http://www.w3.org/1999/xlink">
<g id="graph0" class="graph" transform="scale(1 1) rotate(0) translate(4 83)">
<title>FunctionPanel::onExtractAudio</title>
<!-- Node1 -->
<g id="Node000001" class="node">
<title>Node1</title>
<g id="a_Node000001"><a xlink:title=" ">
<polygon fill="#999999" stroke="#666666" points="126.25,-45 0,-45 0,-13 126.25,-13 126.25,-45"/>
<text xml:space="preserve" text-anchor="start" x="8" y="-31.5" font-family="Helvetica,sans-Serif" font-size="10.00">FunctionPanel::onExtract</text>
<text xml:space="preserve" text-anchor="middle" x="63.12" y="-19.5" font-family="Helvetica,sans-Serif" font-size="10.00">Audio</text>
</a>
</g>
</g>
<!-- Node2 -->
<g id="Node000002" class="node">
<title>Node2</title>
<g id="a_Node000002"><a xlink:href="class_network_manager.html#a160c056e7177dbe9686310e4896326d6" target="_top" xlink:title=" ">
<polygon fill="white" stroke="#666666" points="312.88,-58 165.62,-58 165.62,-38 312.88,-38 312.88,-58"/>
<text xml:space="preserve" text-anchor="middle" x="239.25" y="-44.5" font-family="Helvetica,sans-Serif" font-size="10.00">NetworkManager::getInstance</text>
</a>
</g>
</g>
<!-- Node1&#45;&gt;Node2 -->
<g id="edge1_Node000001_Node000002" class="edge">
<title>Node1&#45;&gt;Node2</title>
<g id="a_edge1_Node000001_Node000002"><a xlink:title=" ">
<path fill="none" stroke="#63b8ff" d="M126.5,-35.81C135.45,-36.78 144.77,-37.8 154.06,-38.81"/>
<polygon fill="#63b8ff" stroke="#63b8ff" points="153.51,-42.27 163.83,-39.88 154.27,-35.32 153.51,-42.27"/>
</a>
</g>
</g>
<!-- Node8 -->
<g id="Node000008" class="node">
<title>Node8</title>
<g id="a_Node000008"><a xlink:href="class_network_manager.html#a00f9107b88e93c583b4fd540b6dedf1a" target="_top" xlink:title="Отправить JSON&#45;запрос.">
<polygon fill="white" stroke="#666666" points="316.25,-20 162.25,-20 162.25,0 316.25,0 316.25,-20"/>
<text xml:space="preserve" text-anchor="middle" x="239.25" y="-6.5" font-family="Helvetica,sans-Serif" font-size="10.00">NetworkManager::sendRequest</text>
</a>
</g>
</g>
<!-- Node1&#45;&gt;Node8 -->
<g id="edge7_Node000001_Node000008" class="edge">
<title>Node1&#45;&gt;Node8</title>
<g id="a_edge7_Node000001_Node000008"><a xlink:title=" ">
<path fill="none" stroke="#63b8ff" d="M126.5,-22.19C134.41,-21.33 142.63,-20.43 150.84,-19.54"/>
<polygon fill="#63b8ff" stroke="#63b8ff" points="150.96,-23.05 160.52,-18.48 150.2,-16.09 150.96,-23.05"/>
</a>
</g>
</g>
<!-- Node3 -->
<g id="Node000003" class="node">
<title>Node3</title>
<g id="a_Node000003"><a xlink:href="class_network_manager.html#a5aaf71c4aa7a2efab7f1dbae02312280" target="_top" xlink:title=" ">
<polygon fill="white" stroke="#666666" points="522.75,-58 352.25,-58 352.25,-38 522.75,-38 522.75,-58"/>
<text xml:space="preserve" text-anchor="middle" x="437.5" y="-44.5" font-family="Helvetica,sans-Serif" font-size="10.00">NetworkManager::NetworkManager</text>
</a>
</g>
</g>
<!-- Node2&#45;&gt;Node3 -->
<g id="edge2_Node000002_Node000003" class="edge">
<title>Node2&#45;&gt;Node3</title>
<g id="a_edge2_Node000002_Node000003"><a xlink:title=" ">
<path fill="none" stroke="#63b8ff" d="M313.33,-48C322.14,-48 331.24,-48 340.32,-48"/>
<polygon fill="#63b8ff" stroke="#63b8ff" points="340.27,-51.5 350.27,-48 340.27,-44.5 340.27,-51.5"/>
</a>
</g>
</g>
<!-- Node4 -->
<g id="Node000004" class="node">
<title>Node4</title>
<g id="a_Node000004"><a xlink:href="class_network_manager.html#a0028518c2761defad4d923b42493463b" target="_top" xlink:title=" ">
<polygon fill="white" stroke="#666666" points="725.5,-77 558.75,-77 558.75,-57 725.5,-57 725.5,-77"/>
<text xml:space="preserve" text-anchor="middle" x="642.12" y="-63.5" font-family="Helvetica,sans-Serif" font-size="10.00">NetworkManager::onDisconnected</text>
</a>
</g>
</g>
<!-- Node3&#45;&gt;Node4 -->
<g id="edge3_Node000003_Node000004" class="edge">
<title>Node3&#45;&gt;Node4</title>
<g id="a_edge3_Node000003_Node000004"><a xlink:title=" ">
<path fill="none" stroke="#63b8ff" d="M522.96,-55.92C530.94,-56.67 539.05,-57.43 547.1,-58.18"/>
<polygon fill="#63b8ff" stroke="#63b8ff" points="546.63,-61.65 556.92,-59.1 547.29,-54.69 546.63,-61.65"/>
</a>
</g>
</g>
<!-- Node6 -->
<g id="Node000006" class="node">
<title>Node6</title>
<g id="a_Node000006"><a xlink:href="class_network_manager.html#a8c95ebaf4720e37c5dfbe3433970c209" target="_top" xlink:title=" ">
<polygon fill="white" stroke="#666666" points="721.38,-36 562.88,-36 562.88,-16 721.38,-16 721.38,-36"/>
<text xml:space="preserve" text-anchor="middle" x="642.12" y="-22.5" font-family="Helvetica,sans-Serif" font-size="10.00">NetworkManager::onReadyRead</text>
</a>
</g>
</g>
<!-- Node3&#45;&gt;Node6 -->
<g id="edge5_Node000003_Node000006" class="edge">
<title>Node3&#45;&gt;Node6</title>
<g id="a_edge5_Node000003_Node000006"><a xlink:title=" ">
<path fill="none" stroke="#63b8ff" d="M522.96,-38.83C532.31,-37.82 541.84,-36.78 551.25,-35.76"/>
<polygon fill="#63b8ff" stroke="#63b8ff" points="551.56,-39.24 561.13,-34.69 550.81,-32.29 551.56,-39.24"/>
</a>
</g>
</g>
<!-- Node5 -->
<g id="Node000005" class="node">
<title>Node5</title>
<g id="a_Node000005"><a xlink:href="class_network_manager.html#ac6ae166f8298c7dcd6c047af4e032417" target="_top" xlink:title=" ">
<polygon fill="white" stroke="#666666" points="923.75,-79 761.5,-79 761.5,-59 923.75,-59 923.75,-79"/>
<text xml:space="preserve" text-anchor="middle" x="842.62" y="-65.5" font-family="Helvetica,sans-Serif" font-size="10.00">NetworkManager::connectionLost</text>
</a>
</g>
</g>
<!-- Node4&#45;&gt;Node5 -->
<g id="edge4_Node000004_Node000005" class="edge">
<title>Node4&#45;&gt;Node5</title>
<g id="a_edge4_Node000004_Node000005"><a xlink:title=" ">
<path fill="none" stroke="#63b8ff" d="M725.87,-67.83C733.82,-67.91 741.92,-68 749.95,-68.08"/>
<polygon fill="#63b8ff" stroke="#63b8ff" points="749.7,-71.57 759.73,-68.17 749.77,-64.57 749.7,-71.57"/>
</a>
</g>
</g>
<!-- Node7 -->
<g id="Node000007" class="node">
<title>Node7</title>
<g id="a_Node000007"><a xlink:href="class_network_manager.html#aaf71ebc15b863819ebb5705bc41ad93d" target="_top" xlink:title=" ">
<polygon fill="white" stroke="#666666" points="910.62,-41 774.62,-41 774.62,-9 910.62,-9 910.62,-41"/>
<text xml:space="preserve" text-anchor="start" x="782.62" y="-27.5" font-family="Helvetica,sans-Serif" font-size="10.00">NetworkManager::response</text>
<text xml:space="preserve" text-anchor="middle" x="842.62" y="-15.5" font-family="Helvetica,sans-Serif" font-size="10.00">Received</text>
</a>
</g>
</g>
<!-- Node6&#45;&gt;Node7 -->
<g id="edge6_Node000006_Node000007" class="edge">
<title>Node6&#45;&gt;Node7</title>
<g id="a_edge6_Node000006_Node000007"><a xlink:title=" ">
<path fill="none" stroke="#63b8ff" d="M721.86,-25.6C735.39,-25.54 749.45,-25.46 762.98,-25.4"/>
<polygon fill="#63b8ff" stroke="#63b8ff" points="762.7,-28.9 772.68,-25.35 762.67,-21.9 762.7,-28.9"/>
</a>
</g>
</g>
<!-- Node9 -->
<g id="Node000009" class="node">
<title>Node9</title>
<g id="a_Node000009"><a xlink:href="class_network_manager.html#a97d1fb741f609c2442efdfd92e944ed2" target="_top" xlink:title=" ">
<polygon fill="white" stroke="#666666" points="513,-20 362,-20 362,0 513,0 513,-20"/>
<text xml:space="preserve" text-anchor="middle" x="437.5" y="-6.5" font-family="Helvetica,sans-Serif" font-size="10.00">NetworkManager::isConnected</text>
</a>
</g>
</g>
<!-- Node8&#45;&gt;Node9 -->
<g id="edge8_Node000008_Node000009" class="edge">
<title>Node8&#45;&gt;Node9</title>
<g id="a_edge8_Node000008_Node000009"><a xlink:title=" ">
<path fill="none" stroke="#63b8ff" d="M316.69,-10C327.63,-10 338.95,-10 350.07,-10"/>
<polygon fill="#63b8ff" stroke="#63b8ff" points="350.05,-13.5 360.05,-10 350.05,-6.5 350.05,-13.5"/>
</a>
</g>
</g>
</g>
</svg>
