<?xml version="1.0" encoding="UTF-8" standalone="no"?>
<!DOCTYPE svg PUBLIC "-//W3C//DTD SVG 1.1//EN"
 "http://www.w3.org/Graphics/SVG/1.1/DTD/svg11.dtd">
<!-- Generated by graphviz version 15.0.0 (20260523.1842)
 -->
<!-- Title: AdminPanel::onDeleteUser Pages: 1 -->
<svg width="940pt" height="87pt"
 viewBox="0.00 0.00 940.00 87.00" xmlns="http://www.w3.org/2000/svg" xmlns:xlink="http://www.w3.org/1999/xlink">
<g id="graph0" class="graph" transform="scale(1 1) rotate(0) translate(4 83)">
<title>AdminPanel::onDeleteUser</title>
<!-- Node1 -->
<g id="Node000001" class="node">
<title>Node1</title>
<g id="a_Node000001"><a xlink:title=" ">
<polygon fill="#999999" stroke="#666666" points="134.5,-39 0,-39 0,-19 134.5,-19 134.5,-39"/>
<text xml:space="preserve" text-anchor="middle" x="67.25" y="-25.5" font-family="Helvetica,sans-Serif" font-size="10.00">AdminPanel::onDeleteUser</text>
</a>
</g>
</g>
<!-- Node2 -->
<g id="Node000002" class="node">
<title>Node2</title>
<g id="a_Node000002"><a xlink:href="class_network_manager.html#a160c056e7177dbe9686310e4896326d6" target="_top" xlink:title=" ">
<polygon fill="white" stroke="#666666" points="321.12,-58 173.88,-58 173.88,-38 321.12,-38 321.12,-58"/>
<text xml:space="preserve" text-anchor="middle" x="247.5" y="-44.5" font-family="Helvetica,sans-Serif" font-size="10.00">NetworkManager::getInstance</text>
</a>
</g>
</g>
<!-- Node1&#45;&gt;Node2 -->
<g id="edge1_Node000001_Node000002" class="edge">
<title>Node1&#45;&gt;Node2</title>
<g id="a_edge1_Node000001_Node000002"><a xlink:title=" ">
<path fill="none" stroke="#63b8ff" d="M134.88,-36.1C143.71,-37.04 152.85,-38.02 161.93,-38.99"/>
<polygon fill="#63b8ff" stroke="#63b8ff" points="161.56,-42.47 171.87,-40.05 162.3,-35.5 161.56,-42.47"/>
</a>
</g>
</g>
<!-- Node8 -->
<g id="Node000008" class="node">
<title>Node8</title>
<g id="a_Node000008"><a xlink:href="class_network_manager.html#a00f9107b88e93c583b4fd540b6dedf1a" target="_top" xlink:title="Отправить JSON&#45;запрос.">
<polygon fill="white" stroke="#666666" points="324.5,-20 170.5,-20 170.5,0 324.5,0 324.5,-20"/>
<text xml:space="preserve" text-anchor="middle" x="247.5" y="-6.5" font-family="Helvetica,sans-Serif" font-size="10.00">NetworkManager::sendRequest</text>
</a>
</g>
</g>
<!-- Node1&#45;&gt;Node8 -->
<g id="edge7_Node000001_Node000008" class="edge">
<title>Node1&#45;&gt;Node8</title>
<g id="a_edge7_Node000001_Node000008"><a xlink:title=" ">
<path fill="none" stroke="#63b8ff" d="M134.88,-21.9C142.67,-21.07 150.72,-20.21 158.74,-19.35"/>
<polygon fill="#63b8ff" stroke="#63b8ff" points="158.98,-22.85 168.55,-18.31 158.24,-15.89 158.98,-22.85"/>
</a>
</g>
</g>
<!-- Node3 -->
<g id="Node000003" class="node">
<title>Node3</title>
<g id="a_Node000003"><a xlink:href="class_network_manager.html#a5aaf71c4aa7a2efab7f1dbae02312280" target="_top" xlink:title=" ">
<polygon fill="white" stroke="#666666" points="531,-58 360.5,-58 360.5,-38 531,-38 531,-58"/>
<text xml:space="preserve" text-anchor="middle" x="445.75" y="-44.5" font-family="Helvetica,sans-Serif" font-size="10.00">NetworkManager::NetworkManager</text>
</a>
</g>
</g>
<!-- Node2&#45;&gt;Node3 -->
<g id="edge2_Node000002_Node000003" class="edge">
<title>Node2&#45;&gt;Node3</title>
<g id="a_edge2_Node000002_Node000003"><a xlink:title=" ">
<path fill="none" stroke="#63b8ff" d="M321.58,-48C330.39,-48 339.49,-48 348.57,-48"/>
<polygon fill="#63b8ff" stroke="#63b8ff" points="348.52,-51.5 358.52,-48 348.52,-44.5 348.52,-51.5"/>
</a>
</g>
</g>
<!-- Node4 -->
<g id="Node000004" class="node">
<title>Node4</title>
<g id="a_Node000004"><a xlink:href="class_network_manager.html#a0028518c2761defad4d923b42493463b" target="_top" xlink:title=" ">
<polygon fill="white" stroke="#666666" points="733.75,-77 567,-77 567,-57 733.75,-57 733.75,-77"/>
<text xml:space="preserve" text-anchor="middle" x="650.38" y="-63.5" font-family="Helvetica,sans-Serif" font-size="10.00">NetworkManager::onDisconnected</text>
</a>
</g>
</g>
<!-- Node3&#45;&gt;Node4 -->
<g id="edge3_Node000003_Node000004" class="edge">
<title>Node3&#45;&gt;Node4</title>
<g id="a_edge3_Node000003_Node000004"><a xlink:title=" ">
<path fill="none" stroke="#63b8ff" d="M531.21,-55.92C539.19,-56.67 547.3,-57.43 555.35,-58.18"/>
<polygon fill="#63b8ff" stroke="#63b8ff" points="554.88,-61.65 565.17,-59.1 555.54,-54.69 554.88,-61.65"/>
</a>
</g>
</g>
<!-- Node6 -->
<g id="Node000006" class="node">
<title>Node6</title>
<g id="a_Node000006"><a xlink:href="class_network_manager.html#a8c95ebaf4720e37c5dfbe3433970c209" target="_top" xlink:title=" ">
<polygon fill="white" stroke="#666666" points="729.62,-36 571.12,-36 571.12,-16 729.62,-16 729.62,-36"/>
<text xml:space="preserve" text-anchor="middle" x="650.38" y="-22.5" font-family="Helvetica,sans-Serif" font-size="10.00">NetworkManager::onReadyRead</text>
</a>
</g>
</g>
<!-- Node3&#45;&gt;Node6 -->
<g id="edge5_Node000003_Node000006" class="edge">
<title>Node3&#45;&gt;Node6</title>
<g id="a_edge5_Node000003_Node000006"><a xlink:title=" ">
<path fill="none" stroke="#63b8ff" d="M531.21,-38.83C540.56,-37.82 550.09,-36.78 559.5,-35.76"/>
<polygon fill="#63b8ff" stroke="#63b8ff" points="559.81,-39.24 569.38,-34.69 559.06,-32.29 559.81,-39.24"/>
</a>
</g>
</g>
<!-- Node5 -->
<g id="Node000005" class="node">
<title>Node5</title>
<g id="a_Node000005"><a xlink:href="class_network_manager.html#ac6ae166f8298c7dcd6c047af4e032417" target="_top" xlink:title=" ">
<polygon fill="white" stroke="#666666" points="932,-79 769.75,-79 769.75,-59 932,-59 932,-79"/>
<text xml:space="preserve" text-anchor="middle" x="850.88" y="-65.5" font-family="Helvetica,sans-Serif" font-size="10.00">NetworkManager::connectionLost</text>
</a>
</g>
</g>
<!-- Node4&#45;&gt;Node5 -->
<g id="edge4_Node000004_Node000005" class="edge">
<title>Node4&#45;&gt;Node5</title>
<g id="a_edge4_Node000004_Node000005"><a xlink:title=" ">
<path fill="none" stroke="#63b8ff" d="M734.12,-67.83C742.07,-67.91 750.17,-68 758.2,-68.08"/>
<polygon fill="#63b8ff" stroke="#63b8ff" points="757.95,-71.57 767.98,-68.17 758.02,-64.57 757.95,-71.57"/>
</a>
</g>
</g>
<!-- Node7 -->
<g id="Node000007" class="node">
<title>Node7</title>
<g id="a_Node000007"><a xlink:href="class_network_manager.html#aaf71ebc15b863819ebb5705bc41ad93d" target="_top" xlink:title=" ">
<polygon fill="white" stroke="#666666" points="918.88,-41 782.88,-41 782.88,-9 918.88,-9 918.88,-41"/>
<text xml:space="preserve" text-anchor="start" x="790.88" y="-27.5" font-family="Helvetica,sans-Serif" font-size="10.00">NetworkManager::response</text>
<text xml:space="preserve" text-anchor="middle" x="850.88" y="-15.5" font-family="Helvetica,sans-Serif" font-size="10.00">Received</text>
</a>
</g>
</g>
<!-- Node6&#45;&gt;Node7 -->
<g id="edge6_Node000006_Node000007" class="edge">
<title>Node6&#45;&gt;Node7</title>
<g id="a_edge6_Node000006_Node000007"><a xlink:title=" ">
<path fill="none" stroke="#63b8ff" d="M730.11,-25.6C743.64,-25.54 757.7,-25.46 771.23,-25.4"/>
<polygon fill="#63b8ff" stroke="#63b8ff" points="770.95,-28.9 780.93,-25.35 770.92,-21.9 770.95,-28.9"/>
</a>
</g>
</g>
<!-- Node9 -->
<g id="Node000009" class="node">
<title>Node9</title>
<g id="a_Node000009"><a xlink:href="class_network_manager.html#a97d1fb741f609c2442efdfd92e944ed2" target="_top" xlink:title=" ">
<polygon fill="white" stroke="#666666" points="521.25,-20 370.25,-20 370.25,0 521.25,0 521.25,-20"/>
<text xml:space="preserve" text-anchor="middle" x="445.75" y="-6.5" font-family="Helvetica,sans-Serif" font-size="10.00">NetworkManager::isConnected</text>
</a>
</g>
</g>
<!-- Node8&#45;&gt;Node9 -->
<g id="edge8_Node000008_Node000009" class="edge">
<title>Node8&#45;&gt;Node9</title>
<g id="a_edge8_Node000008_Node000009"><a xlink:title=" ">
<path fill="none" stroke="#63b8ff" d="M324.94,-10C335.88,-10 347.2,-10 358.32,-10"/>
<polygon fill="#63b8ff" stroke="#63b8ff" points="358.3,-13.5 368.3,-10 358.3,-6.5 358.3,-13.5"/>
</a>
</g>
</g>
</g>
</svg>
