<?xml version="1.0" encoding="UTF-8" standalone="no"?>
<!DOCTYPE svg PUBLIC "-//W3C//DTD SVG 1.1//EN"
 "http://www.w3.org/Graphics/SVG/1.1/DTD/svg11.dtd">
<!-- Generated by graphviz version 15.0.0 (20260523.1842)
 -->
<!-- Title: NetworkManager::connectionLost Pages: 1 -->
<svg width="1500pt" height="610pt"
 viewBox="0.00 0.00 1500.00 610.00" xmlns="http://www.w3.org/2000/svg" xmlns:xlink="http://www.w3.org/1999/xlink">
<g id="graph0" class="graph" transform="scale(1 1) rotate(0) translate(4 606)">
<title>NetworkManager::connectionLost</title>
<!-- Node1 -->
<g id="Node000001" class="node">
<title>Node1</title>
<g id="a_Node000001"><a xlink:title=" ">
<polygon fill="#999999" stroke="#666666" points="1491.5,-497 1329.25,-497 1329.25,-477 1491.5,-477 1491.5,-497"/>
<text xml:space="preserve" text-anchor="middle" x="1410.38" y="-483.5" font-family="Helvetica,sans-Serif" font-size="10.00">NetworkManager::connectionLost</text>
</a>
</g>
</g>
<!-- Node2 -->
<g id="Node000002" class="node">
<title>Node2</title>
<g id="a_Node000002"><a xlink:href="class_main_window.html#a996c5a2b6f77944776856f08ec30858d" target="_top" xlink:title=" ">
<polygon fill="white" stroke="#666666" points="691.38,-602 556.88,-602 556.88,-582 691.38,-582 691.38,-602"/>
<text xml:space="preserve" text-anchor="middle" x="624.12" y="-588.5" font-family="Helvetica,sans-Serif" font-size="10.00">MainWindow::MainWindow</text>
</a>
</g>
</g>
<!-- Node1&#45;&gt;Node2 -->
<g id="edge1_Node000001_Node000002" class="edge">
<title>Node1&#45;&gt;Node2</title>
<g id="a_edge1_Node000001_Node000002"><a xlink:title=" ">
<path fill="none" stroke="#63b8ff" d="M1320.17,-498.94C1161.23,-520.22 832.54,-564.23 691.63,-583.1"/>
<polygon fill="#63b8ff" stroke="#63b8ff" points="1320.36,-502.45 1329.81,-497.65 1319.43,-495.51 1320.36,-502.45"/>
</a>
</g>
</g>
<!-- Node3 -->
<g id="Node000003" class="node">
<title>Node3</title>
<g id="a_Node000003"><a xlink:href="class_network_manager.html#a0028518c2761defad4d923b42493463b" target="_top" xlink:title=" ">
<polygon fill="white" stroke="#666666" points="1293.25,-478 1126.5,-478 1126.5,-458 1293.25,-458 1293.25,-478"/>
<text xml:space="preserve" text-anchor="middle" x="1209.88" y="-464.5" font-family="Helvetica,sans-Serif" font-size="10.00">NetworkManager::onDisconnected</text>
</a>
</g>
</g>
<!-- Node1&#45;&gt;Node3 -->
<g id="edge2_Node000001_Node000003" class="edge">
<title>Node1&#45;&gt;Node3</title>
<g id="a_edge2_Node000001_Node000003"><a xlink:title=" ">
<path fill="none" stroke="#63b8ff" d="M1317.68,-478.22C1309.69,-477.46 1301.62,-476.69 1293.7,-475.93"/>
<polygon fill="#63b8ff" stroke="#63b8ff" points="1317.13,-481.69 1327.42,-479.16 1317.8,-474.72 1317.13,-481.69"/>
</a>
</g>
</g>
<!-- Node4 -->
<g id="Node000004" class="node">
<title>Node4</title>
<g id="a_Node000004"><a xlink:href="class_network_manager.html#a5aaf71c4aa7a2efab7f1dbae02312280" target="_top" xlink:title=" ">
<polygon fill="white" stroke="#666666" points="1090.5,-364 920,-364 920,-344 1090.5,-344 1090.5,-364"/>
<text xml:space="preserve" text-anchor="middle" x="1005.25" y="-350.5" font-family="Helvetica,sans-Serif" font-size="10.00">NetworkManager::NetworkManager</text>
</a>
</g>
</g>
<!-- Node3&#45;&gt;Node4 -->
<g id="edge3_Node000003_Node000004" class="edge">
<title>Node3&#45;&gt;Node4</title>
<g id="a_edge3_Node000003_Node000004"><a xlink:title=" ">
<path fill="none" stroke="#63b8ff" d="M1180.64,-452.12C1138.49,-428.4 1060.25,-384.38 1024.69,-364.38"/>
<polygon fill="#63b8ff" stroke="#63b8ff" points="1178.79,-455.09 1189.22,-456.94 1182.22,-448.99 1178.79,-455.09"/>
</a>
</g>
</g>
<!-- Node5 -->
<g id="Node000005" class="node">
<title>Node5</title>
<g id="a_Node000005"><a xlink:href="class_network_manager.html#a160c056e7177dbe9686310e4896326d6" target="_top" xlink:title=" ">
<polygon fill="white" stroke="#666666" points="884,-336 736.75,-336 736.75,-316 884,-316 884,-336"/>
<text xml:space="preserve" text-anchor="middle" x="810.38" y="-322.5" font-family="Helvetica,sans-Serif" font-size="10.00">NetworkManager::getInstance</text>
</a>
</g>
</g>
<!-- Node4&#45;&gt;Node5 -->
<g id="edge4_Node000004_Node000005" class="edge">
<title>Node4&#45;&gt;Node5</title>
<g id="a_edge4_Node000004_Node000005"><a xlink:title=" ">
<path fill="none" stroke="#63b8ff" d="M920.89,-341.9C908.51,-340.1 895.83,-338.26 883.7,-336.5"/>
<polygon fill="#63b8ff" stroke="#63b8ff" points="920.26,-345.34 930.66,-343.32 921.26,-338.42 920.26,-345.34"/>
</a>
</g>
</g>
<!-- Node5&#45;&gt;Node2 -->
<g id="edge8_Node000005_Node000002" class="edge">
<title>Node5&#45;&gt;Node2</title>
<g id="a_edge8_Node000005_Node000002"><a xlink:title=" ">
<path fill="none" stroke="#63b8ff" d="M805.82,-347.41C796.92,-394.35 769.24,-506.94 700.75,-568 694.17,-573.87 686.15,-578.3 677.83,-581.65"/>
<polygon fill="#63b8ff" stroke="#63b8ff" points="809.24,-348.2 807.55,-337.74 802.35,-346.97 809.24,-348.2"/>
</a>
</g>
</g>
<!-- Node6 -->
<g id="Node000006" class="node">
<title>Node6</title>
<g id="a_Node000006"><a xlink:href="class_admin_panel.html#ac08bfe38bdadbc173f63daba4d0ee54f" target="_top" xlink:title=" ">
<polygon fill="white" stroke="#666666" points="315.5,-488 188.5,-488 188.5,-468 315.5,-468 315.5,-488"/>
<text xml:space="preserve" text-anchor="middle" x="252" y="-474.5" font-family="Helvetica,sans-Serif" font-size="10.00">AdminPanel::AdminPanel</text>
</a>
</g>
</g>
<!-- Node5&#45;&gt;Node6 -->
<g id="edge5_Node000005_Node000006" class="edge">
<title>Node5&#45;&gt;Node6</title>
<g id="a_edge5_Node000005_Node000006"><a xlink:title=" ">
<path fill="none" stroke="#63b8ff" d="M804.5,-347.29C793.78,-388.69 763.92,-479.53 700.75,-520 572.17,-602.37 505.47,-572.73 357.5,-535 322.06,-525.96 285.67,-502.17 266.59,-488.35"/>
<polygon fill="#63b8ff" stroke="#63b8ff" points="807.84,-348.37 806.82,-337.82 801.04,-346.7 807.84,-348.37"/>
</a>
</g>
</g>
<!-- Node7 -->
<g id="Node000007" class="node">
<title>Node7</title>
<g id="a_Node000007"><a xlink:href="class_function_panel.html#a2d5d7db3a79e75cfd2d941941e4ff985" target="_top" xlink:title=" ">
<polygon fill="white" stroke="#666666" points="146.5,-279 0,-279 0,-259 146.5,-259 146.5,-279"/>
<text xml:space="preserve" text-anchor="middle" x="73.25" y="-265.5" font-family="Helvetica,sans-Serif" font-size="10.00">FunctionPanel::FunctionPanel</text>
</a>
</g>
</g>
<!-- Node5&#45;&gt;Node7 -->
<g id="edge6_Node000005_Node000007" class="edge">
<title>Node5&#45;&gt;Node7</title>
<g id="a_edge6_Node000005_Node000007"><a xlink:title=" ">
<path fill="none" stroke="#63b8ff" d="M773.85,-340.55C752.96,-348.31 725.8,-357.06 700.75,-361 471.98,-396.95 405.33,-370.04 182.5,-307 154.33,-299.03 122.82,-287.68 101.09,-279.47"/>
<polygon fill="#63b8ff" stroke="#63b8ff" points="774.96,-343.87 783.05,-337.03 772.46,-337.33 774.96,-343.87"/>
</a>
</g>
</g>
<!-- Node8 -->
<g id="Node000008" class="node">
<title>Node8</title>
<g id="a_Node000008"><a xlink:href="class_login_window.html#aa4c04d26b299de00156bbf3c32b2a082" target="_top" xlink:title=" ">
<polygon fill="white" stroke="#666666" points="321.5,-298 182.5,-298 182.5,-278 321.5,-278 321.5,-298"/>
<text xml:space="preserve" text-anchor="middle" x="252" y="-284.5" font-family="Helvetica,sans-Serif" font-size="10.00">LoginWindow::LoginWindow</text>
</a>
</g>
</g>
<!-- Node5&#45;&gt;Node8 -->
<g id="edge7_Node000005_Node000008" class="edge">
<title>Node5&#45;&gt;Node8</title>
<g id="a_edge7_Node000005_Node000008"><a xlink:title=" ">
<path fill="none" stroke="#63b8ff" d="M785.77,-309.29C764.63,-295.42 732.2,-276.75 700.75,-269 557.97,-233.81 381.96,-260.94 299.62,-277.55"/>
<polygon fill="#63b8ff" stroke="#63b8ff" points="783.68,-312.1 793.93,-314.8 787.6,-306.3 783.68,-312.1"/>
</a>
</g>
</g>
<!-- Node9 -->
<g id="Node000009" class="node">
<title>Node9</title>
<g id="a_Node000009"><a xlink:href="class_admin_panel.html#af748235fd13c7fd0e846414b606de30f" target="_top" xlink:title=" ">
<polygon fill="white" stroke="#666666" points="501.75,-526 367.25,-526 367.25,-506 501.75,-506 501.75,-526"/>
<text xml:space="preserve" text-anchor="middle" x="434.5" y="-512.5" font-family="Helvetica,sans-Serif" font-size="10.00">AdminPanel::onDeleteUser</text>
</a>
</g>
</g>
<!-- Node5&#45;&gt;Node9 -->
<g id="edge9_Node000005_Node000009" class="edge">
<title>Node5&#45;&gt;Node9</title>
<g id="a_edge9_Node000005_Node000009"><a xlink:title=" ">
<path fill="none" stroke="#63b8ff" d="M802.14,-346.88C788.53,-382.65 755.46,-455.01 700.75,-488 640.67,-524.23 558.81,-527.38 501.98,-523.92"/>
<polygon fill="#63b8ff" stroke="#63b8ff" points="805.36,-348.27 805.49,-337.68 798.78,-345.87 805.36,-348.27"/>
</a>
</g>
</g>
<!-- Node10 -->
<g id="Node000010" class="node">
<title>Node10</title>
<g id="a_Node000010"><a xlink:href="class_function_panel.html#a22a6f067f8e61ce0cc829b254701e25c" target="_top" xlink:title=" ">
<polygon fill="white" stroke="#666666" points="699.25,-146 549,-146 549,-126 699.25,-126 699.25,-146"/>
<text xml:space="preserve" text-anchor="middle" x="624.12" y="-132.5" font-family="Helvetica,sans-Serif" font-size="10.00">FunctionPanel::onEmbedAudio</text>
</a>
</g>
</g>
<!-- Node5&#45;&gt;Node10 -->
<g id="edge11_Node000005_Node000010" class="edge">
<title>Node5&#45;&gt;Node10</title>
<g id="a_edge11_Node000005_Node000010"><a xlink:title=" ">
<path fill="none" stroke="#63b8ff" d="M801.95,-304.8C788.05,-268.32 754.54,-193.85 700.75,-155 696.03,-151.59 690.76,-148.79 685.27,-146.49"/>
<polygon fill="#63b8ff" stroke="#63b8ff" points="798.66,-306 805.39,-314.19 805.24,-303.59 798.66,-306"/>
</a>
</g>
</g>
<!-- Node13 -->
<g id="Node000013" class="node">
<title>Node13</title>
<g id="a_Node000013"><a xlink:href="class_function_panel.html#a71915838c272980f83b01743da9606c7" target="_top" xlink:title=" ">
<polygon fill="white" stroke="#666666" points="687.25,-108 561,-108 561,-76 687.25,-76 687.25,-108"/>
<text xml:space="preserve" text-anchor="start" x="569" y="-94.5" font-family="Helvetica,sans-Serif" font-size="10.00">FunctionPanel::onExtract</text>
<text xml:space="preserve" text-anchor="middle" x="624.12" y="-82.5" font-family="Helvetica,sans-Serif" font-size="10.00">Audio</text>
</a>
</g>
</g>
<!-- Node5&#45;&gt;Node13 -->
<g id="edge15_Node000005_Node000013" class="edge">
<title>Node5&#45;&gt;Node13</title>
<g id="a_edge15_Node000005_Node000013"><a xlink:title=" ">
<path fill="none" stroke="#63b8ff" d="M804.04,-304.44C792.5,-262.28 761.26,-168.53 700.75,-117 696.75,-113.59 692.27,-110.65 687.54,-108.1"/>
<polygon fill="#63b8ff" stroke="#63b8ff" points="800.64,-305.3 806.56,-314.09 807.42,-303.53 800.64,-305.3"/>
</a>
</g>
</g>
<!-- Node14 -->
<g id="Node000014" class="node">
<title>Node14</title>
<g id="a_Node000014"><a xlink:href="class_login_window.html#aa0eff66887b5d6e4b5edefeeaccc93c4" target="_top" xlink:title=" ">
<polygon fill="white" stroke="#666666" points="681.25,-336 567,-336 567,-316 681.25,-316 681.25,-336"/>
<text xml:space="preserve" text-anchor="middle" x="624.12" y="-322.5" font-family="Helvetica,sans-Serif" font-size="10.00">LoginWindow::onLogin</text>
</a>
</g>
</g>
<!-- Node5&#45;&gt;Node14 -->
<g id="edge17_Node000005_Node000014" class="edge">
<title>Node5&#45;&gt;Node14</title>
<g id="a_edge17_Node000005_Node000014"><a xlink:title=" ">
<path fill="none" stroke="#63b8ff" d="M725.11,-326C710.38,-326 695.38,-326 681.63,-326"/>
<polygon fill="#63b8ff" stroke="#63b8ff" points="724.78,-329.5 734.78,-326 724.78,-322.5 724.78,-329.5"/>
</a>
</g>
</g>
<!-- Node16 -->
<g id="Node000016" class="node">
<title>Node16</title>
<g id="a_Node000016"><a xlink:href="class_function_panel.html#adb82fa5b98439020e7c18326ef217df3" target="_top" xlink:title=" ">
<polygon fill="white" stroke="#666666" points="700.75,-222 547.5,-222 547.5,-202 700.75,-202 700.75,-222"/>
<text xml:space="preserve" text-anchor="middle" x="624.12" y="-208.5" font-family="Helvetica,sans-Serif" font-size="10.00">FunctionPanel::onNewtonSolve</text>
</a>
</g>
</g>
<!-- Node5&#45;&gt;Node16 -->
<g id="edge20_Node000005_Node000016" class="edge">
<title>Node5&#45;&gt;Node16</title>
<g id="a_edge20_Node000005_Node000016"><a xlink:title=" ">
<path fill="none" stroke="#63b8ff" d="M791.59,-307.49C771.31,-287.35 736.33,-255.42 700.75,-236 690.59,-230.46 678.96,-225.97 667.91,-222.44"/>
<polygon fill="#63b8ff" stroke="#63b8ff" points="789,-309.85 798.52,-314.51 793.98,-304.93 789,-309.85"/>
</a>
</g>
</g>
<!-- Node18 -->
<g id="Node000018" class="node">
<title>Node18</title>
<g id="a_Node000018"><a xlink:href="class_login_window.html#a204a22ca9e09efd75f5bb3130bdd9ca3" target="_top" xlink:title=" ">
<polygon fill="white" stroke="#666666" points="688,-298 560.25,-298 560.25,-278 688,-278 688,-298"/>
<text xml:space="preserve" text-anchor="middle" x="624.12" y="-284.5" font-family="Helvetica,sans-Serif" font-size="10.00">LoginWindow::onRegister</text>
</a>
</g>
</g>
<!-- Node5&#45;&gt;Node18 -->
<g id="edge23_Node000005_Node000018" class="edge">
<title>Node5&#45;&gt;Node18</title>
<g id="a_edge23_Node000005_Node000018"><a xlink:title=" ">
<path fill="none" stroke="#63b8ff" d="M747.37,-313.21C724.09,-308.41 697.93,-303.01 675.79,-298.45"/>
<polygon fill="#63b8ff" stroke="#63b8ff" points="746.56,-316.62 757.06,-315.21 747.97,-309.76 746.56,-316.62"/>
</a>
</g>
</g>
<!-- Node19 -->
<g id="Node000019" class="node">
<title>Node19</title>
<g id="a_Node000019"><a xlink:href="class_login_window.html#ae4412a9e90a05b4e066ec353f2e83795" target="_top" xlink:title=" ">
<polygon fill="white" stroke="#666666" points="502.12,-336 366.88,-336 366.88,-316 502.12,-316 502.12,-336"/>
<text xml:space="preserve" text-anchor="middle" x="434.5" y="-322.5" font-family="Helvetica,sans-Serif" font-size="10.00">LoginWindow::onResponse</text>
</a>
</g>
</g>
<!-- Node5&#45;&gt;Node19 -->
<g id="edge25_Node000005_Node000019" class="edge">
<title>Node5&#45;&gt;Node19</title>
<g id="a_edge25_Node000005_Node000019"><a xlink:title=" ">
<path fill="none" stroke="#63b8ff" d="M748.99,-338.47C733.35,-341.18 716.48,-343.63 700.75,-345 632.89,-350.89 615.37,-350.72 547.5,-345 527.36,-343.3 505.39,-339.92 486.29,-336.47"/>
<polygon fill="#63b8ff" stroke="#63b8ff" points="749.42,-341.95 758.64,-336.74 748.18,-335.06 749.42,-341.95"/>
</a>
</g>
</g>
<!-- Node20 -->
<g id="Node000020" class="node">
<title>Node20</title>
<g id="a_Node000020"><a xlink:href="class_function_panel.html#a13229f11c1e90edb6c7efc867cfa4dd4" target="_top" xlink:title=" ">
<polygon fill="white" stroke="#666666" points="697.75,-58 550.5,-58 550.5,-38 697.75,-38 697.75,-58"/>
<text xml:space="preserve" text-anchor="middle" x="624.12" y="-44.5" font-family="Helvetica,sans-Serif" font-size="10.00">FunctionPanel::onRsaDecrypt</text>
</a>
</g>
</g>
<!-- Node5&#45;&gt;Node20 -->
<g id="edge27_Node000005_Node000020" class="edge">
<title>Node5&#45;&gt;Node20</title>
<g id="a_edge27_Node000005_Node000020"><a xlink:title=" ">
<path fill="none" stroke="#63b8ff" d="M806.83,-304.46C799.77,-254.68 775.25,-131.02 700.75,-67 696.75,-63.56 692.21,-60.73 687.39,-58.39"/>
<polygon fill="#63b8ff" stroke="#63b8ff" points="803.33,-304.73 808.1,-314.19 810.28,-303.82 803.33,-304.73"/>
</a>
</g>
</g>
<!-- Node22 -->
<g id="Node000022" class="node">
<title>Node22</title>
<g id="a_Node000022"><a xlink:href="class_function_panel.html#a14c947c65c33e3603d670aaa6938df14" target="_top" xlink:title=" ">
<polygon fill="white" stroke="#666666" points="697.38,-20 550.88,-20 550.88,0 697.38,0 697.38,-20"/>
<text xml:space="preserve" text-anchor="middle" x="624.12" y="-6.5" font-family="Helvetica,sans-Serif" font-size="10.00">FunctionPanel::onRsaEncrypt</text>
</a>
</g>
</g>
<!-- Node5&#45;&gt;Node22 -->
<g id="edge30_Node000005_Node000022" class="edge">
<title>Node5&#45;&gt;Node22</title>
<g id="a_edge30_Node000005_Node000022"><a xlink:title=" ">
<path fill="none" stroke="#63b8ff" d="M808.12,-304.35C803.74,-249.55 784.41,-104.34 700.75,-29 696.93,-25.56 692.57,-22.72 687.93,-20.38"/>
<polygon fill="#63b8ff" stroke="#63b8ff" points="804.62,-304.46 808.81,-314.2 811.6,-303.98 804.62,-304.46"/>
</a>
</g>
</g>
<!-- Node23 -->
<g id="Node000023" class="node">
<title>Node23</title>
<g id="a_Node000023"><a xlink:href="class_admin_panel.html#acdad0443cfc8d2cc7ab5a6d86099e026" target="_top" xlink:title=" ">
<polygon fill="white" stroke="#666666" points="494.62,-488 374.38,-488 374.38,-468 494.62,-468 494.62,-488"/>
<text xml:space="preserve" text-anchor="middle" x="434.5" y="-474.5" font-family="Helvetica,sans-Serif" font-size="10.00">AdminPanel::onSetRole</text>
</a>
</g>
</g>
<!-- Node5&#45;&gt;Node23 -->
<g id="edge32_Node000005_Node000023" class="edge">
<title>Node5&#45;&gt;Node23</title>
<g id="a_edge32_Node000005_Node000023"><a xlink:title=" ">
<path fill="none" stroke="#63b8ff" d="M799.62,-346.36C783.71,-376.97 749.06,-433.93 700.75,-459 636.41,-492.39 551.23,-491.97 494.96,-486.65"/>
<polygon fill="#63b8ff" stroke="#63b8ff" points="802.59,-348.24 803.94,-337.73 796.33,-345.1 802.59,-348.24"/>
</a>
</g>
</g>
<!-- Node24 -->
<g id="Node000024" class="node">
<title>Node24</title>
<g id="a_Node000024"><a xlink:href="class_function_panel.html#a6afe059a7266a629e5a6f4bacda15488" target="_top" xlink:title=" ">
<polygon fill="white" stroke="#666666" points="694.38,-184 553.88,-184 553.88,-164 694.38,-164 694.38,-184"/>
<text xml:space="preserve" text-anchor="middle" x="624.12" y="-170.5" font-family="Helvetica,sans-Serif" font-size="10.00">FunctionPanel::onSha1Hash</text>
</a>
</g>
</g>
<!-- Node5&#45;&gt;Node24 -->
<g id="edge34_Node000005_Node000024" class="edge">
<title>Node5&#45;&gt;Node24</title>
<g id="a_edge34_Node000005_Node000024"><a xlink:title=" ">
<path fill="none" stroke="#63b8ff" d="M798.56,-305.84C781.69,-276.38 746.27,-221.92 700.75,-193 695.38,-189.59 689.43,-186.79 683.3,-184.49"/>
<polygon fill="#63b8ff" stroke="#63b8ff" points="795.45,-307.44 803.37,-314.48 801.57,-304.04 795.45,-307.44"/>
</a>
</g>
</g>
<!-- Node26 -->
<g id="Node000026" class="node">
<title>Node26</title>
<g id="a_Node000026"><a xlink:href="class_admin_panel.html#a694b174c96fe84f486797c8eed253099" target="_top" xlink:title=" ">
<polygon fill="white" stroke="#666666" points="676.38,-450 571.88,-450 571.88,-430 676.38,-430 676.38,-450"/>
<text xml:space="preserve" text-anchor="middle" x="624.12" y="-436.5" font-family="Helvetica,sans-Serif" font-size="10.00">AdminPanel::refresh</text>
</a>
</g>
</g>
<!-- Node5&#45;&gt;Node26 -->
<g id="edge37_Node000005_Node000026" class="edge">
<title>Node5&#45;&gt;Node26</title>
<g id="a_edge37_Node000005_Node000026"><a xlink:title=" ">
<path fill="none" stroke="#63b8ff" d="M791.59,-344.51C771.31,-364.65 736.33,-396.58 700.75,-416 690.59,-421.54 678.96,-426.03 667.91,-429.56"/>
<polygon fill="#63b8ff" stroke="#63b8ff" points="793.98,-347.07 798.52,-337.49 789,-342.15 793.98,-347.07"/>
</a>
</g>
</g>
<!-- Node9&#45;&gt;Node6 -->
<g id="edge10_Node000009_Node000006" class="edge">
<title>Node9&#45;&gt;Node6</title>
<g id="a_edge10_Node000009_Node000006"><a xlink:title=" ">
<path fill="none" stroke="#63b8ff" d="M372.45,-503.15C349.72,-498.36 324.22,-492.99 302.64,-488.45"/>
<polygon fill="#63b8ff" stroke="#63b8ff" points="371.71,-506.57 382.22,-505.2 373.15,-499.72 371.71,-506.57"/>
</a>
</g>
</g>
<!-- Node11 -->
<g id="Node000011" class="node">
<title>Node11</title>
<g id="a_Node000011"><a xlink:href="class_function_panel.html#a7067dea9591465da0ffe51665a50c3ae" target="_top" xlink:title=" ">
<polygon fill="white" stroke="#666666" points="507.38,-146 361.62,-146 361.62,-126 507.38,-126 507.38,-146"/>
<text xml:space="preserve" text-anchor="middle" x="434.5" y="-132.5" font-family="Helvetica,sans-Serif" font-size="10.00">FunctionPanel::buildStegoTab</text>
</a>
</g>
</g>
<!-- Node10&#45;&gt;Node11 -->
<g id="edge12_Node000010_Node000011" class="edge">
<title>Node10&#45;&gt;Node11</title>
<g id="a_edge12_Node000010_Node000011"><a xlink:title=" ">
<path fill="none" stroke="#63b8ff" d="M537.2,-136C527.33,-136 517.35,-136 507.69,-136"/>
<polygon fill="#63b8ff" stroke="#63b8ff" points="537.19,-139.5 547.19,-136 537.19,-132.5 537.19,-139.5"/>
</a>
</g>
</g>
<!-- Node12 -->
<g id="Node000012" class="node">
<title>Node12</title>
<g id="a_Node000012"><a xlink:href="class_function_panel.html#acc9f052b6a2a9a9acd404608a607e230" target="_top" xlink:title=" ">
<polygon fill="white" stroke="#666666" points="311,-184 193,-184 193,-164 311,-164 311,-184"/>
<text xml:space="preserve" text-anchor="middle" x="252" y="-170.5" font-family="Helvetica,sans-Serif" font-size="10.00">FunctionPanel::setupUi</text>
</a>
</g>
</g>
<!-- Node11&#45;&gt;Node12 -->
<g id="edge13_Node000011_Node000012" class="edge">
<title>Node11&#45;&gt;Node12</title>
<g id="a_edge13_Node000011_Node000012"><a xlink:title=" ">
<path fill="none" stroke="#63b8ff" d="M372.45,-148.85C349.72,-153.64 324.22,-159.01 302.64,-163.55"/>
<polygon fill="#63b8ff" stroke="#63b8ff" points="373.15,-152.28 382.22,-146.8 371.71,-145.43 373.15,-152.28"/>
</a>
</g>
</g>
<!-- Node12&#45;&gt;Node7 -->
<g id="edge14_Node000012_Node000007" class="edge">
<title>Node12&#45;&gt;Node7</title>
<g id="a_edge14_Node000012_Node000007"><a xlink:title=" ">
<path fill="none" stroke="#63b8ff" d="M221.79,-189.7C185.55,-209.18 124.77,-241.85 93.75,-258.52"/>
<polygon fill="#63b8ff" stroke="#63b8ff" points="223.26,-192.88 230.42,-185.06 219.95,-186.72 223.26,-192.88"/>
</a>
</g>
</g>
<!-- Node13&#45;&gt;Node11 -->
<g id="edge16_Node000013_Node000011" class="edge">
<title>Node13&#45;&gt;Node11</title>
<g id="a_edge16_Node000013_Node000011"><a xlink:title=" ">
<path fill="none" stroke="#63b8ff" d="M549.67,-109.23C526.21,-114.73 500.98,-120.64 480.21,-125.51"/>
<polygon fill="#63b8ff" stroke="#63b8ff" points="550.24,-112.69 559.18,-107 548.64,-105.87 550.24,-112.69"/>
</a>
</g>
</g>
<!-- Node15 -->
<g id="Node000015" class="node">
<title>Node15</title>
<g id="a_Node000015"><a xlink:href="class_login_window.html#a87a24faaa152fc9017988fe5c48bb4c8" target="_top" xlink:title=" ">
<polygon fill="white" stroke="#666666" points="491.62,-298 377.38,-298 377.38,-278 491.62,-278 491.62,-298"/>
<text xml:space="preserve" text-anchor="middle" x="434.5" y="-284.5" font-family="Helvetica,sans-Serif" font-size="10.00">LoginWindow::setupUi</text>
</a>
</g>
</g>
<!-- Node14&#45;&gt;Node15 -->
<g id="edge18_Node000014_Node000015" class="edge">
<title>Node14&#45;&gt;Node15</title>
<g id="a_edge18_Node000014_Node000015"><a xlink:title=" ">
<path fill="none" stroke="#63b8ff" d="M560.31,-313.28C536.52,-308.46 509.74,-303.04 487.1,-298.45"/>
<polygon fill="#63b8ff" stroke="#63b8ff" points="559.38,-316.66 569.88,-315.22 560.77,-309.8 559.38,-316.66"/>
</a>
</g>
</g>
<!-- Node15&#45;&gt;Node8 -->
<g id="edge19_Node000015_Node000008" class="edge">
<title>Node15&#45;&gt;Node8</title>
<g id="a_edge19_Node000015_Node000008"><a xlink:title=" ">
<path fill="none" stroke="#63b8ff" d="M365.6,-288C351.27,-288 336.14,-288 321.78,-288"/>
<polygon fill="#63b8ff" stroke="#63b8ff" points="365.37,-291.5 375.37,-288 365.37,-284.5 365.37,-291.5"/>
</a>
</g>
</g>
<!-- Node17 -->
<g id="Node000017" class="node">
<title>Node17</title>
<g id="a_Node000017"><a xlink:href="class_function_panel.html#a2b7fb74dd54e7a469be9a8e3f9e63fec" target="_top" xlink:title=" ">
<polygon fill="white" stroke="#666666" points="511.5,-222 357.5,-222 357.5,-202 511.5,-202 511.5,-222"/>
<text xml:space="preserve" text-anchor="middle" x="434.5" y="-208.5" font-family="Helvetica,sans-Serif" font-size="10.00">FunctionPanel::buildNewtonTab</text>
</a>
</g>
</g>
<!-- Node16&#45;&gt;Node17 -->
<g id="edge21_Node000016_Node000017" class="edge">
<title>Node16&#45;&gt;Node17</title>
<g id="a_edge21_Node000016_Node000017"><a xlink:title=" ">
<path fill="none" stroke="#63b8ff" d="M535.59,-212C527.69,-212 519.74,-212 511.96,-212"/>
<polygon fill="#63b8ff" stroke="#63b8ff" points="535.57,-215.5 545.57,-212 535.57,-208.5 535.57,-215.5"/>
</a>
</g>
</g>
<!-- Node17&#45;&gt;Node12 -->
<g id="edge22_Node000017_Node000012" class="edge">
<title>Node17&#45;&gt;Node12</title>
<g id="a_edge22_Node000017_Node000012"><a xlink:title=" ">
<path fill="none" stroke="#63b8ff" d="M372.45,-199.15C349.72,-194.36 324.22,-188.99 302.64,-184.45"/>
<polygon fill="#63b8ff" stroke="#63b8ff" points="371.71,-202.57 382.22,-201.2 373.15,-195.72 371.71,-202.57"/>
</a>
</g>
</g>
<!-- Node18&#45;&gt;Node15 -->
<g id="edge24_Node000018_Node000015" class="edge">
<title>Node18&#45;&gt;Node15</title>
<g id="a_edge24_Node000018_Node000015"><a xlink:title=" ">
<path fill="none" stroke="#63b8ff" d="M548.58,-288C529.69,-288 509.7,-288 491.87,-288"/>
<polygon fill="#63b8ff" stroke="#63b8ff" points="548.35,-291.5 558.35,-288 548.35,-284.5 548.35,-291.5"/>
</a>
</g>
</g>
<!-- Node19&#45;&gt;Node8 -->
<g id="edge26_Node000019_Node000008" class="edge">
<title>Node19&#45;&gt;Node8</title>
<g id="a_edge26_Node000019_Node000008"><a xlink:title=" ">
<path fill="none" stroke="#63b8ff" d="M372.45,-313.15C349.72,-308.36 324.22,-302.99 302.64,-298.45"/>
<polygon fill="#63b8ff" stroke="#63b8ff" points="371.71,-316.57 382.22,-315.2 373.15,-309.72 371.71,-316.57"/>
</a>
</g>
</g>
<!-- Node21 -->
<g id="Node000021" class="node">
<title>Node21</title>
<g id="a_Node000021"><a xlink:href="class_function_panel.html#acba7dde974c62940bf72b41afb04e033" target="_top" xlink:title=" ">
<polygon fill="white" stroke="#666666" points="503.62,-58 365.38,-58 365.38,-38 503.62,-38 503.62,-58"/>
<text xml:space="preserve" text-anchor="middle" x="434.5" y="-44.5" font-family="Helvetica,sans-Serif" font-size="10.00">FunctionPanel::buildRsaTab</text>
</a>
</g>
</g>
<!-- Node20&#45;&gt;Node21 -->
<g id="edge28_Node000020_Node000021" class="edge">
<title>Node20&#45;&gt;Node21</title>
<g id="a_edge28_Node000020_Node000021"><a xlink:title=" ">
<path fill="none" stroke="#63b8ff" d="M538.59,-48C527.04,-48 515.3,-48 504.08,-48"/>
<polygon fill="#63b8ff" stroke="#63b8ff" points="538.53,-51.5 548.53,-48 538.53,-44.5 538.53,-51.5"/>
</a>
</g>
</g>
<!-- Node21&#45;&gt;Node12 -->
<g id="edge29_Node000021_Node000012" class="edge">
<title>Node21&#45;&gt;Node12</title>
<g id="a_edge29_Node000021_Node000012"><a xlink:title=" ">
<path fill="none" stroke="#63b8ff" d="M409.46,-64.78C371.62,-91.2 299.23,-141.73 267.98,-163.55"/>
<polygon fill="#63b8ff" stroke="#63b8ff" points="411.29,-67.77 417.49,-59.18 407.28,-62.03 411.29,-67.77"/>
</a>
</g>
</g>
<!-- Node22&#45;&gt;Node21 -->
<g id="edge31_Node000022_Node000021" class="edge">
<title>Node22&#45;&gt;Node21</title>
<g id="a_edge31_Node000022_Node000021"><a xlink:title=" ">
<path fill="none" stroke="#63b8ff" d="M560.31,-22.72C536.52,-27.54 509.74,-32.96 487.1,-37.55"/>
<polygon fill="#63b8ff" stroke="#63b8ff" points="560.77,-26.2 569.88,-20.78 559.38,-19.34 560.77,-26.2"/>
</a>
</g>
</g>
<!-- Node23&#45;&gt;Node6 -->
<g id="edge33_Node000023_Node000006" class="edge">
<title>Node23&#45;&gt;Node6</title>
<g id="a_edge33_Node000023_Node000006"><a xlink:title=" ">
<path fill="none" stroke="#63b8ff" d="M362.81,-478C347.35,-478 331.08,-478 315.95,-478"/>
<polygon fill="#63b8ff" stroke="#63b8ff" points="362.38,-481.5 372.38,-478 362.38,-474.5 362.38,-481.5"/>
</a>
</g>
</g>
<!-- Node25 -->
<g id="Node000025" class="node">
<title>Node25</title>
<g id="a_Node000025"><a xlink:href="class_function_panel.html#a00db863aeeaf45d183bdc633882f9bb8" target="_top" xlink:title=" ">
<polygon fill="white" stroke="#666666" points="505.88,-184 363.12,-184 363.12,-164 505.88,-164 505.88,-184"/>
<text xml:space="preserve" text-anchor="middle" x="434.5" y="-170.5" font-family="Helvetica,sans-Serif" font-size="10.00">FunctionPanel::buildSha1Tab</text>
</a>
</g>
</g>
<!-- Node24&#45;&gt;Node25 -->
<g id="edge35_Node000024_Node000025" class="edge">
<title>Node24&#45;&gt;Node25</title>
<g id="a_edge35_Node000024_Node000025"><a xlink:title=" ">
<path fill="none" stroke="#63b8ff" d="M542.17,-174C530.21,-174 517.97,-174 506.24,-174"/>
<polygon fill="#63b8ff" stroke="#63b8ff" points="542.01,-177.5 552.01,-174 542.01,-170.5 542.01,-177.5"/>
</a>
</g>
</g>
<!-- Node25&#45;&gt;Node12 -->
<g id="edge36_Node000025_Node000012" class="edge">
<title>Node25&#45;&gt;Node12</title>
<g id="a_edge36_Node000025_Node000012"><a xlink:title=" ">
<path fill="none" stroke="#63b8ff" d="M351.42,-174C337.91,-174 324.16,-174 311.39,-174"/>
<polygon fill="#63b8ff" stroke="#63b8ff" points="351.17,-177.5 361.17,-174 351.17,-170.5 351.17,-177.5"/>
</a>
</g>
</g>
<!-- Node26&#45;&gt;Node6 -->
<g id="edge38_Node000026_Node000006" class="edge">
<title>Node26&#45;&gt;Node6</title>
<g id="a_edge38_Node000026_Node000006"><a xlink:title=" ">
<path fill="none" stroke="#63b8ff" d="M573.18,-427.11C519.15,-415.31 430.9,-402.28 357.5,-421 322.06,-430.04 285.67,-453.83 266.59,-467.65"/>
<polygon fill="#63b8ff" stroke="#63b8ff" points="572.17,-430.47 582.69,-429.26 573.71,-423.64 572.17,-430.47"/>
</a>
</g>
</g>
<!-- Node27 -->
<g id="Node000027" class="node">
<title>Node27</title>
<g id="a_Node000027"><a xlink:href="class_admin_panel.html#abb38c9620b22656efa51036e40166275" target="_top" xlink:title=" ">
<polygon fill="white" stroke="#666666" points="499.12,-450 369.88,-450 369.88,-430 499.12,-430 499.12,-450"/>
<text xml:space="preserve" text-anchor="middle" x="434.5" y="-436.5" font-family="Helvetica,sans-Serif" font-size="10.00">AdminPanel::onResponse</text>
</a>
</g>
</g>
<!-- Node26&#45;&gt;Node27 -->
<g id="edge39_Node000026_Node000027" class="edge">
<title>Node26&#45;&gt;Node27</title>
<g id="a_edge39_Node000026_Node000027"><a xlink:title=" ">
<path fill="none" stroke="#63b8ff" d="M560.56,-440C540.91,-440 519.19,-440 499.45,-440"/>
<polygon fill="#63b8ff" stroke="#63b8ff" points="560.34,-443.5 570.34,-440 560.34,-436.5 560.34,-443.5"/>
</a>
</g>
</g>
<!-- Node27&#45;&gt;Node6 -->
<g id="edge40_Node000027_Node000006" class="edge">
<title>Node27&#45;&gt;Node6</title>
<g id="a_edge40_Node000027_Node000006"><a xlink:title=" ">
<path fill="none" stroke="#63b8ff" d="M372.45,-452.85C349.72,-457.64 324.22,-463.01 302.64,-467.55"/>
<polygon fill="#63b8ff" stroke="#63b8ff" points="373.15,-456.28 382.22,-450.8 371.71,-449.43 373.15,-456.28"/>
</a>
</g>
</g>
</g>
</svg>
