<?xml version="1.0" encoding="UTF-8" standalone="no"?>
<!DOCTYPE svg PUBLIC "-//W3C//DTD SVG 1.1//EN"
 "http://www.w3.org/Graphics/SVG/1.1/DTD/svg11.dtd">
<!-- Generated by graphviz version 15.0.0 (20260523.1842)
 -->
<!-- Title: FunctionPanel::onRsaDecrypt Pages: 1 -->
<svg width="953pt" height="87pt"
 viewBox="0.00 0.00 953.00 87.00" xmlns="http://www.w3.org/2000/svg" xmlns:xlink="http://www.w3.org/1999/xlink">
<g id="graph0" class="graph" transform="scale(1 1) rotate(0) translate(4 83)">
<title>FunctionPanel::onRsaDecrypt</title>
<!-- Node1 -->
<g id="Node000001" class="node">
<title>Node1</title>
<g id="a_Node000001"><a xlink:title=" ">
<polygon fill="#999999" stroke="#666666" points="147.25,-39 0,-39 0,-19 147.25,-19 147.25,-39"/>
<text xml:space="preserve" text-anchor="middle" x="73.62" y="-25.5" font-family="Helvetica,sans-Serif" font-size="10.00">FunctionPanel::onRsaDecrypt</text>
</a>
</g>
</g>
<!-- Node2 -->
<g id="Node000002" class="node">
<title>Node2</title>
<g id="a_Node000002"><a xlink:href="class_network_manager.html#a160c056e7177dbe9686310e4896326d6" target="_top" xlink:title=" ">
<polygon fill="white" stroke="#666666" points="333.88,-58 186.62,-58 186.62,-38 333.88,-38 333.88,-58"/>
<text xml:space="preserve" text-anchor="middle" x="260.25" y="-44.5" font-family="Helvetica,sans-Serif" font-size="10.00">NetworkManager::getInstance</text>
</a>
</g>
</g>
<!-- Node1&#45;&gt;Node2 -->
<g id="edge1_Node000001_Node000002" class="edge">
<title>Node1&#45;&gt;Node2</title>
<g id="a_edge1_Node000001_Node000002"><a xlink:title=" ">
<path fill="none" stroke="#63b8ff" d="M147.59,-36.51C156.52,-37.43 165.71,-38.37 174.79,-39.31"/>
<polygon fill="#63b8ff" stroke="#63b8ff" points="174.4,-42.79 184.7,-40.33 175.11,-35.82 174.4,-42.79"/>
</a>
</g>
</g>
<!-- Node8 -->
<g id="Node000008" class="node">
<title>Node8</title>
<g id="a_Node000008"><a xlink:href="class_network_manager.html#a00f9107b88e93c583b4fd540b6dedf1a" target="_top" xlink:title="Отправить JSON&#45;запрос.">
<polygon fill="white" stroke="#666666" points="337.25,-20 183.25,-20 183.25,0 337.25,0 337.25,-20"/>
<text xml:space="preserve" text-anchor="middle" x="260.25" y="-6.5" font-family="Helvetica,sans-Serif" font-size="10.00">NetworkManager::sendRequest</text>
</a>
</g>
</g>
<!-- Node1&#45;&gt;Node8 -->
<g id="edge7_Node000001_Node000008" class="edge">
<title>Node1&#45;&gt;Node8</title>
<g id="a_edge7_Node000001_Node000008"><a xlink:title=" ">
<path fill="none" stroke="#63b8ff" d="M147.59,-21.49C155.47,-20.68 163.55,-19.85 171.58,-19.02"/>
<polygon fill="#63b8ff" stroke="#63b8ff" points="171.77,-22.52 181.36,-18.02 171.06,-15.56 171.77,-22.52"/>
</a>
</g>
</g>
<!-- Node3 -->
<g id="Node000003" class="node">
<title>Node3</title>
<g id="a_Node000003"><a xlink:href="class_network_manager.html#a5aaf71c4aa7a2efab7f1dbae02312280" target="_top" xlink:title=" ">
<polygon fill="white" stroke="#666666" points="543.75,-58 373.25,-58 373.25,-38 543.75,-38 543.75,-58"/>
<text xml:space="preserve" text-anchor="middle" x="458.5" y="-44.5" font-family="Helvetica,sans-Serif" font-size="10.00">NetworkManager::NetworkManager</text>
</a>
</g>
</g>
<!-- Node2&#45;&gt;Node3 -->
<g id="edge2_Node000002_Node000003" class="edge">
<title>Node2&#45;&gt;Node3</title>
<g id="a_edge2_Node000002_Node000003"><a xlink:title=" ">
<path fill="none" stroke="#63b8ff" d="M334.33,-48C343.14,-48 352.24,-48 361.32,-48"/>
<polygon fill="#63b8ff" stroke="#63b8ff" points="361.27,-51.5 371.27,-48 361.27,-44.5 361.27,-51.5"/>
</a>
</g>
</g>
<!-- Node4 -->
<g id="Node000004" class="node">
<title>Node4</title>
<g id="a_Node000004"><a xlink:href="class_network_manager.html#a0028518c2761defad4d923b42493463b" target="_top" xlink:title=" ">
<polygon fill="white" stroke="#666666" points="746.5,-77 579.75,-77 579.75,-57 746.5,-57 746.5,-77"/>
<text xml:space="preserve" text-anchor="middle" x="663.12" y="-63.5" font-family="Helvetica,sans-Serif" font-size="10.00">NetworkManager::onDisconnected</text>
</a>
</g>
</g>
<!-- Node3&#45;&gt;Node4 -->
<g id="edge3_Node000003_Node000004" class="edge">
<title>Node3&#45;&gt;Node4</title>
<g id="a_edge3_Node000003_Node000004"><a xlink:title=" ">
<path fill="none" stroke="#63b8ff" d="M543.96,-55.92C551.94,-56.67 560.05,-57.43 568.1,-58.18"/>
<polygon fill="#63b8ff" stroke="#63b8ff" points="567.63,-61.65 577.92,-59.1 568.29,-54.69 567.63,-61.65"/>
</a>
</g>
</g>
<!-- Node6 -->
<g id="Node000006" class="node">
<title>Node6</title>
<g id="a_Node000006"><a xlink:href="class_network_manager.html#a8c95ebaf4720e37c5dfbe3433970c209" target="_top" xlink:title=" ">
<polygon fill="white" stroke="#666666" points="742.38,-36 583.88,-36 583.88,-16 742.38,-16 742.38,-36"/>
<text xml:space="preserve" text-anchor="middle" x="663.12" y="-22.5" font-family="Helvetica,sans-Serif" font-size="10.00">NetworkManager::onReadyRead</text>
</a>
</g>
</g>
<!-- Node3&#45;&gt;Node6 -->
<g id="edge5_Node000003_Node000006" class="edge">
<title>Node3&#45;&gt;Node6</title>
<g id="a_edge5_Node000003_Node000006"><a xlink:title=" ">
<path fill="none" stroke="#63b8ff" d="M543.96,-38.83C553.31,-37.82 562.84,-36.78 572.25,-35.76"/>
<polygon fill="#63b8ff" stroke="#63b8ff" points="572.56,-39.24 582.13,-34.69 571.81,-32.29 572.56,-39.24"/>
</a>
</g>
</g>
<!-- Node5 -->
<g id="Node000005" class="node">
<title>Node5</title>
<g id="a_Node000005"><a xlink:href="class_network_manager.html#ac6ae166f8298c7dcd6c047af4e032417" target="_top" xlink:title=" ">
<polygon fill="white" stroke="#666666" points="944.75,-79 782.5,-79 782.5,-59 944.75,-59 944.75,-79"/>
<text xml:space="preserve" text-anchor="middle" x="863.62" y="-65.5" font-family="Helvetica,sans-Serif" font-size="10.00">NetworkManager::connectionLost</text>
</a>
</g>
</g>
<!-- Node4&#45;&gt;Node5 -->
<g id="edge4_Node000004_Node000005" class="edge">
<title>Node4&#45;&gt;Node5</title>
<g id="a_edge4_Node000004_Node000005"><a xlink:title=" ">
<path fill="none" stroke="#63b8ff" d="M746.87,-67.83C754.82,-67.91 762.92,-68 770.95,-68.08"/>
<polygon fill="#63b8ff" stroke="#63b8ff" points="770.7,-71.57 780.73,-68.17 770.77,-64.57 770.7,-71.57"/>
</a>
</g>
</g>
<!-- Node7 -->
<g id="Node000007" class="node">
<title>Node7</title>
<g id="a_Node000007"><a xlink:href="class_network_manager.html#aaf71ebc15b863819ebb5705bc41ad93d" target="_top" xlink:title=" ">
<polygon fill="white" stroke="#666666" points="931.62,-41 795.62,-41 795.62,-9 931.62,-9 931.62,-41"/>
<text xml:space="preserve" text-anchor="start" x="803.62" y="-27.5" font-family="Helvetica,sans-Serif" font-size="10.00">NetworkManager::response</text>
<text xml:space="preserve" text-anchor="middle" x="863.62" y="-15.5" font-family="Helvetica,sans-Serif" font-size="10.00">Received</text>
</a>
</g>
</g>
<!-- Node6&#45;&gt;Node7 -->
<g id="edge6_Node000006_Node000007" class="edge">
<title>Node6&#45;&gt;Node7</title>
<g id="a_edge6_Node000006_Node000007"><a xlink:title=" ">
<path fill="none" stroke="#63b8ff" d="M742.86,-25.6C756.39,-25.54 770.45,-25.46 783.98,-25.4"/>
<polygon fill="#63b8ff" stroke="#63b8ff" points="783.7,-28.9 793.68,-25.35 783.67,-21.9 783.7,-28.9"/>
</a>
</g>
</g>
<!-- Node9 -->
<g id="Node000009" class="node">
<title>Node9</title>
<g id="a_Node000009"><a xlink:href="class_network_manager.html#a97d1fb741f609c2442efdfd92e944ed2" target="_top" xlink:title=" ">
<polygon fill="white" stroke="#666666" points="534,-20 383,-20 383,0 534,0 534,-20"/>
<text xml:space="preserve" text-anchor="middle" x="458.5" y="-6.5" font-family="Helvetica,sans-Serif" font-size="10.00">NetworkManager::isConnected</text>
</a>
</g>
</g>
<!-- Node8&#45;&gt;Node9 -->
<g id="edge8_Node000008_Node000009" class="edge">
<title>Node8&#45;&gt;Node9</title>
<g id="a_edge8_Node000008_Node000009"><a xlink:title=" ">
<path fill="none" stroke="#63b8ff" d="M337.69,-10C348.63,-10 359.95,-10 371.07,-10"/>
<polygon fill="#63b8ff" stroke="#63b8ff" points="371.05,-13.5 381.05,-10 371.05,-6.5 371.05,-13.5"/>
</a>
</g>
</g>
</g>
</svg>
