<?xml version="1.0" encoding="UTF-8" standalone="no"?>
<!DOCTYPE svg PUBLIC "-//W3C//DTD SVG 1.1//EN"
 "http://www.w3.org/Graphics/SVG/1.1/DTD/svg11.dtd">
<!-- Generated by graphviz version 15.0.0 (20260523.1842)
 -->
<!-- Title: FunctionPanel::onNewtonSolve Pages: 1 -->
<svg width="959pt" height="87pt"
 viewBox="0.00 0.00 959.00 87.00" xmlns="http://www.w3.org/2000/svg" xmlns:xlink="http://www.w3.org/1999/xlink">
<g id="graph0" class="graph" transform="scale(1 1) rotate(0) translate(4 83)">
<title>FunctionPanel::onNewtonSolve</title>
<!-- Node1 -->
<g id="Node000001" class="node">
<title>Node1</title>
<g id="a_Node000001"><a xlink:title=" ">
<polygon fill="#999999" stroke="#666666" points="153.25,-39 0,-39 0,-19 153.25,-19 153.25,-39"/>
<text xml:space="preserve" text-anchor="middle" x="76.62" y="-25.5" font-family="Helvetica,sans-Serif" font-size="10.00">FunctionPanel::onNewtonSolve</text>
</a>
</g>
</g>
<!-- Node2 -->
<g id="Node000002" class="node">
<title>Node2</title>
<g id="a_Node000002"><a xlink:href="class_network_manager.html#a160c056e7177dbe9686310e4896326d6" target="_top" xlink:title=" ">
<polygon fill="white" stroke="#666666" points="339.88,-58 192.62,-58 192.62,-38 339.88,-38 339.88,-58"/>
<text xml:space="preserve" text-anchor="middle" x="266.25" y="-44.5" font-family="Helvetica,sans-Serif" font-size="10.00">NetworkManager::getInstance</text>
</a>
</g>
</g>
<!-- Node1&#45;&gt;Node2 -->
<g id="edge1_Node000001_Node000002" class="edge">
<title>Node1&#45;&gt;Node2</title>
<g id="a_edge1_Node000001_Node000002"><a xlink:title=" ">
<path fill="none" stroke="#63b8ff" d="M153.67,-36.7C162.6,-37.6 171.75,-38.53 180.78,-39.45"/>
<polygon fill="#63b8ff" stroke="#63b8ff" points="180.33,-42.92 190.63,-40.44 181.03,-35.95 180.33,-42.92"/>
</a>
</g>
</g>
<!-- Node8 -->
<g id="Node000008" class="node">
<title>Node8</title>
<g id="a_Node000008"><a xlink:href="class_network_manager.html#a00f9107b88e93c583b4fd540b6dedf1a" target="_top" xlink:title="Отправить JSON&#45;запрос.">
<polygon fill="white" stroke="#666666" points="343.25,-20 189.25,-20 189.25,0 343.25,0 343.25,-20"/>
<text xml:space="preserve" text-anchor="middle" x="266.25" y="-6.5" font-family="Helvetica,sans-Serif" font-size="10.00">NetworkManager::sendRequest</text>
</a>
</g>
</g>
<!-- Node1&#45;&gt;Node8 -->
<g id="edge7_Node000001_Node000008" class="edge">
<title>Node1&#45;&gt;Node8</title>
<g id="a_edge7_Node000001_Node000008"><a xlink:title=" ">
<path fill="none" stroke="#63b8ff" d="M153.67,-21.3C161.54,-20.5 169.58,-19.69 177.57,-18.88"/>
<polygon fill="#63b8ff" stroke="#63b8ff" points="177.69,-22.38 187.29,-17.89 176.99,-15.42 177.69,-22.38"/>
</a>
</g>
</g>
<!-- Node3 -->
<g id="Node000003" class="node">
<title>Node3</title>
<g id="a_Node000003"><a xlink:href="class_network_manager.html#a5aaf71c4aa7a2efab7f1dbae02312280" target="_top" xlink:title=" ">
<polygon fill="white" stroke="#666666" points="549.75,-58 379.25,-58 379.25,-38 549.75,-38 549.75,-58"/>
<text xml:space="preserve" text-anchor="middle" x="464.5" y="-44.5" font-family="Helvetica,sans-Serif" font-size="10.00">NetworkManager::NetworkManager</text>
</a>
</g>
</g>
<!-- Node2&#45;&gt;Node3 -->
<g id="edge2_Node000002_Node000003" class="edge">
<title>Node2&#45;&gt;Node3</title>
<g id="a_edge2_Node000002_Node000003"><a xlink:title=" ">
<path fill="none" stroke="#63b8ff" d="M340.33,-48C349.14,-48 358.24,-48 367.32,-48"/>
<polygon fill="#63b8ff" stroke="#63b8ff" points="367.27,-51.5 377.27,-48 367.27,-44.5 367.27,-51.5"/>
</a>
</g>
</g>
<!-- Node4 -->
<g id="Node000004" class="node">
<title>Node4</title>
<g id="a_Node000004"><a xlink:href="class_network_manager.html#a0028518c2761defad4d923b42493463b" target="_top" xlink:title=" ">
<polygon fill="white" stroke="#666666" points="752.5,-77 585.75,-77 585.75,-57 752.5,-57 752.5,-77"/>
<text xml:space="preserve" text-anchor="middle" x="669.12" y="-63.5" font-family="Helvetica,sans-Serif" font-size="10.00">NetworkManager::onDisconnected</text>
</a>
</g>
</g>
<!-- Node3&#45;&gt;Node4 -->
<g id="edge3_Node000003_Node000004" class="edge">
<title>Node3&#45;&gt;Node4</title>
<g id="a_edge3_Node000003_Node000004"><a xlink:title=" ">
<path fill="none" stroke="#63b8ff" d="M549.96,-55.92C557.94,-56.67 566.05,-57.43 574.1,-58.18"/>
<polygon fill="#63b8ff" stroke="#63b8ff" points="573.63,-61.65 583.92,-59.1 574.29,-54.69 573.63,-61.65"/>
</a>
</g>
</g>
<!-- Node6 -->
<g id="Node000006" class="node">
<title>Node6</title>
<g id="a_Node000006"><a xlink:href="class_network_manager.html#a8c95ebaf4720e37c5dfbe3433970c209" target="_top" xlink:title=" ">
<polygon fill="white" stroke="#666666" points="748.38,-36 589.88,-36 589.88,-16 748.38,-16 748.38,-36"/>
<text xml:space="preserve" text-anchor="middle" x="669.12" y="-22.5" font-family="Helvetica,sans-Serif" font-size="10.00">NetworkManager::onReadyRead</text>
</a>
</g>
</g>
<!-- Node3&#45;&gt;Node6 -->
<g id="edge5_Node000003_Node000006" class="edge">
<title>Node3&#45;&gt;Node6</title>
<g id="a_edge5_Node000003_Node000006"><a xlink:title=" ">
<path fill="none" stroke="#63b8ff" d="M549.96,-38.83C559.31,-37.82 568.84,-36.78 578.25,-35.76"/>
<polygon fill="#63b8ff" stroke="#63b8ff" points="578.56,-39.24 588.13,-34.69 577.81,-32.29 578.56,-39.24"/>
</a>
</g>
</g>
<!-- Node5 -->
<g id="Node000005" class="node">
<title>Node5</title>
<g id="a_Node000005"><a xlink:href="class_network_manager.html#ac6ae166f8298c7dcd6c047af4e032417" target="_top" xlink:title=" ">
<polygon fill="white" stroke="#666666" points="950.75,-79 788.5,-79 788.5,-59 950.75,-59 950.75,-79"/>
<text xml:space="preserve" text-anchor="middle" x="869.62" y="-65.5" font-family="Helvetica,sans-Serif" font-size="10.00">NetworkManager::connectionLost</text>
</a>
</g>
</g>
<!-- Node4&#45;&gt;Node5 -->
<g id="edge4_Node000004_Node000005" class="edge">
<title>Node4&#45;&gt;Node5</title>
<g id="a_edge4_Node000004_Node000005"><a xlink:title=" ">
<path fill="none" stroke="#63b8ff" d="M752.87,-67.83C760.82,-67.91 768.92,-68 776.95,-68.08"/>
<polygon fill="#63b8ff" stroke="#63b8ff" points="776.7,-71.57 786.73,-68.17 776.77,-64.57 776.7,-71.57"/>
</a>
</g>
</g>
<!-- Node7 -->
<g id="Node000007" class="node">
<title>Node7</title>
<g id="a_Node000007"><a xlink:href="class_network_manager.html#aaf71ebc15b863819ebb5705bc41ad93d" target="_top" xlink:title=" ">
<polygon fill="white" stroke="#666666" points="937.62,-41 801.62,-41 801.62,-9 937.62,-9 937.62,-41"/>
<text xml:space="preserve" text-anchor="start" x="809.62" y="-27.5" font-family="Helvetica,sans-Serif" font-size="10.00">NetworkManager::response</text>
<text xml:space="preserve" text-anchor="middle" x="869.62" y="-15.5" font-family="Helvetica,sans-Serif" font-size="10.00">Received</text>
</a>
</g>
</g>
<!-- Node6&#45;&gt;Node7 -->
<g id="edge6_Node000006_Node000007" class="edge">
<title>Node6&#45;&gt;Node7</title>
<g id="a_edge6_Node000006_Node000007"><a xlink:title=" ">
<path fill="none" stroke="#63b8ff" d="M748.86,-25.6C762.39,-25.54 776.45,-25.46 789.98,-25.4"/>
<polygon fill="#63b8ff" stroke="#63b8ff" points="789.7,-28.9 799.68,-25.35 789.67,-21.9 789.7,-28.9"/>
</a>
</g>
</g>
<!-- Node9 -->
<g id="Node000009" class="node">
<title>Node9</title>
<g id="a_Node000009"><a xlink:href="class_network_manager.html#a97d1fb741f609c2442efdfd92e944ed2" target="_top" xlink:title=" ">
<polygon fill="white" stroke="#666666" points="540,-20 389,-20 389,0 540,0 540,-20"/>
<text xml:space="preserve" text-anchor="middle" x="464.5" y="-6.5" font-family="Helvetica,sans-Serif" font-size="10.00">NetworkManager::isConnected</text>
</a>
</g>
</g>
<!-- Node8&#45;&gt;Node9 -->
<g id="edge8_Node000008_Node000009" class="edge">
<title>Node8&#45;&gt;Node9</title>
<g id="a_edge8_Node000008_Node000009"><a xlink:title=" ">
<path fill="none" stroke="#63b8ff" d="M343.69,-10C354.63,-10 365.95,-10 377.07,-10"/>
<polygon fill="#63b8ff" stroke="#63b8ff" points="377.05,-13.5 387.05,-10 377.05,-6.5 377.05,-13.5"/>
</a>
</g>
</g>
</g>
</svg>
