<?xml version="1.0" encoding="UTF-8" standalone="no"?>
<!DOCTYPE svg PUBLIC "-//W3C//DTD SVG 1.1//EN"
 "http://www.w3.org/Graphics/SVG/1.1/DTD/svg11.dtd">
<!-- Generated by graphviz version 15.0.0 (20260523.1842)
 -->
<!-- Title: LoginWindow::onLogin Pages: 1 -->
<svg width="913pt" height="88pt"
 viewBox="0.00 0.00 913.00 88.00" xmlns="http://www.w3.org/2000/svg" xmlns:xlink="http://www.w3.org/1999/xlink">
<g id="graph0" class="graph" transform="scale(1 1) rotate(0) translate(4 84)">
<title>LoginWindow::onLogin</title>
<!-- Node1 -->
<g id="Node000001" class="node">
<title>Node1</title>
<g id="a_Node000001"><a xlink:title=" ">
<polygon fill="#999999" stroke="#666666" points="114.25,-39 0,-39 0,-19 114.25,-19 114.25,-39"/>
<text xml:space="preserve" text-anchor="middle" x="57.12" y="-25.5" font-family="Helvetica,sans-Serif" font-size="10.00">LoginWindow::onLogin</text>
</a>
</g>
</g>
<!-- Node2 -->
<g id="Node000002" class="node">
<title>Node2</title>
<g id="a_Node000002"><a xlink:href="class_network_manager.html#a160c056e7177dbe9686310e4896326d6" target="_top" xlink:title=" ">
<polygon fill="white" stroke="#666666" points="297.5,-58 150.25,-58 150.25,-38 297.5,-38 297.5,-58"/>
<text xml:space="preserve" text-anchor="middle" x="223.88" y="-44.5" font-family="Helvetica,sans-Serif" font-size="10.00">NetworkManager::getInstance</text>
</a>
</g>
</g>
<!-- Node1&#45;&gt;Node2 -->
<g id="edge1_Node000001_Node000002" class="edge">
<title>Node1&#45;&gt;Node2</title>
<g id="a_edge1_Node000001_Node000002"><a xlink:title=" ">
<path fill="none" stroke="#63b8ff" d="M114.36,-35.49C122.24,-36.39 130.48,-37.34 138.75,-38.3"/>
<polygon fill="#63b8ff" stroke="#63b8ff" points="138.16,-41.75 148.49,-39.42 138.96,-34.8 138.16,-41.75"/>
</a>
</g>
</g>
<!-- Node8 -->
<g id="Node000008" class="node">
<title>Node8</title>
<g id="a_Node000008"><a xlink:href="class_login_window.html#a4095f3828566b4386908dc2844c28f1d" target="_top" xlink:title=" ">
<polygon fill="white" stroke="#666666" points="285.12,-20 162.62,-20 162.62,0 285.12,0 285.12,-20"/>
<text xml:space="preserve" text-anchor="middle" x="223.88" y="-6.5" font-family="Helvetica,sans-Serif" font-size="10.00">LoginWindow::setStatus</text>
</a>
</g>
</g>
<!-- Node1&#45;&gt;Node8 -->
<g id="edge7_Node000001_Node000008" class="edge">
<title>Node1&#45;&gt;Node8</title>
<g id="a_edge7_Node000001_Node000008"><a xlink:title=" ">
<path fill="none" stroke="#63b8ff" d="M114.36,-22.51C126.21,-21.15 138.86,-19.69 151.19,-18.27"/>
<polygon fill="#63b8ff" stroke="#63b8ff" points="151.35,-21.77 160.88,-17.15 150.55,-14.82 151.35,-21.77"/>
</a>
</g>
</g>
<!-- Node3 -->
<g id="Node000003" class="node">
<title>Node3</title>
<g id="a_Node000003"><a xlink:href="class_network_manager.html#a5aaf71c4aa7a2efab7f1dbae02312280" target="_top" xlink:title=" ">
<polygon fill="white" stroke="#666666" points="504,-58 333.5,-58 333.5,-38 504,-38 504,-58"/>
<text xml:space="preserve" text-anchor="middle" x="418.75" y="-44.5" font-family="Helvetica,sans-Serif" font-size="10.00">NetworkManager::NetworkManager</text>
</a>
</g>
</g>
<!-- Node2&#45;&gt;Node3 -->
<g id="edge2_Node000002_Node000003" class="edge">
<title>Node2&#45;&gt;Node3</title>
<g id="a_edge2_Node000002_Node000003"><a xlink:title=" ">
<path fill="none" stroke="#63b8ff" d="M297.79,-48C305.62,-48 313.67,-48 321.72,-48"/>
<polygon fill="#63b8ff" stroke="#63b8ff" points="321.56,-51.5 331.56,-48 321.56,-44.5 321.56,-51.5"/>
</a>
</g>
</g>
<!-- Node4 -->
<g id="Node000004" class="node">
<title>Node4</title>
<g id="a_Node000004"><a xlink:href="class_network_manager.html#a0028518c2761defad4d923b42493463b" target="_top" xlink:title=" ">
<polygon fill="white" stroke="#666666" points="706.75,-78 540,-78 540,-58 706.75,-58 706.75,-78"/>
<text xml:space="preserve" text-anchor="middle" x="623.38" y="-64.5" font-family="Helvetica,sans-Serif" font-size="10.00">NetworkManager::onDisconnected</text>
</a>
</g>
</g>
<!-- Node3&#45;&gt;Node4 -->
<g id="edge3_Node000003_Node000004" class="edge">
<title>Node3&#45;&gt;Node4</title>
<g id="a_edge3_Node000003_Node000004"><a xlink:title=" ">
<path fill="none" stroke="#63b8ff" d="M504.21,-56.34C512.19,-57.12 520.3,-57.92 528.35,-58.72"/>
<polygon fill="#63b8ff" stroke="#63b8ff" points="527.87,-62.19 538.17,-59.69 528.56,-55.22 527.87,-62.19"/>
</a>
</g>
</g>
<!-- Node6 -->
<g id="Node000006" class="node">
<title>Node6</title>
<g id="a_Node000006"><a xlink:href="class_network_manager.html#a8c95ebaf4720e37c5dfbe3433970c209" target="_top" xlink:title=" ">
<polygon fill="white" stroke="#666666" points="702.62,-39 544.12,-39 544.12,-19 702.62,-19 702.62,-39"/>
<text xml:space="preserve" text-anchor="middle" x="623.38" y="-25.5" font-family="Helvetica,sans-Serif" font-size="10.00">NetworkManager::onReadyRead</text>
</a>
</g>
</g>
<!-- Node3&#45;&gt;Node6 -->
<g id="edge5_Node000003_Node000006" class="edge">
<title>Node3&#45;&gt;Node6</title>
<g id="a_edge5_Node000003_Node000006"><a xlink:title=" ">
<path fill="none" stroke="#63b8ff" d="M504.21,-40.08C513.56,-39.2 523.09,-38.31 532.5,-37.43"/>
<polygon fill="#63b8ff" stroke="#63b8ff" points="532.74,-40.92 542.37,-36.5 532.09,-33.95 532.74,-40.92"/>
</a>
</g>
</g>
<!-- Node5 -->
<g id="Node000005" class="node">
<title>Node5</title>
<g id="a_Node000005"><a xlink:href="class_network_manager.html#ac6ae166f8298c7dcd6c047af4e032417" target="_top" xlink:title=" ">
<polygon fill="white" stroke="#666666" points="905,-80 742.75,-80 742.75,-60 905,-60 905,-80"/>
<text xml:space="preserve" text-anchor="middle" x="823.88" y="-66.5" font-family="Helvetica,sans-Serif" font-size="10.00">NetworkManager::connectionLost</text>
</a>
</g>
</g>
<!-- Node4&#45;&gt;Node5 -->
<g id="edge4_Node000004_Node000005" class="edge">
<title>Node4&#45;&gt;Node5</title>
<g id="a_edge4_Node000004_Node000005"><a xlink:title=" ">
<path fill="none" stroke="#63b8ff" d="M707.12,-68.83C715.07,-68.91 723.17,-69 731.2,-69.08"/>
<polygon fill="#63b8ff" stroke="#63b8ff" points="730.95,-72.57 740.98,-69.17 731.02,-65.57 730.95,-72.57"/>
</a>
</g>
</g>
<!-- Node7 -->
<g id="Node000007" class="node">
<title>Node7</title>
<g id="a_Node000007"><a xlink:href="class_network_manager.html#aaf71ebc15b863819ebb5705bc41ad93d" target="_top" xlink:title=" ">
<polygon fill="white" stroke="#666666" points="891.88,-42 755.88,-42 755.88,-10 891.88,-10 891.88,-42"/>
<text xml:space="preserve" text-anchor="start" x="763.88" y="-28.5" font-family="Helvetica,sans-Serif" font-size="10.00">NetworkManager::response</text>
<text xml:space="preserve" text-anchor="middle" x="823.88" y="-16.5" font-family="Helvetica,sans-Serif" font-size="10.00">Received</text>
</a>
</g>
</g>
<!-- Node6&#45;&gt;Node7 -->
<g id="edge6_Node000006_Node000007" class="edge">
<title>Node6&#45;&gt;Node7</title>
<g id="a_edge6_Node000006_Node000007"><a xlink:title=" ">
<path fill="none" stroke="#63b8ff" d="M703.11,-27.81C716.64,-27.61 730.7,-27.39 744.23,-27.19"/>
<polygon fill="#63b8ff" stroke="#63b8ff" points="743.99,-30.69 753.93,-27.04 743.88,-23.69 743.99,-30.69"/>
</a>
</g>
</g>
</g>
</svg>
