<?xml version="1.0" encoding="UTF-8" standalone="no"?>
<!DOCTYPE svg PUBLIC "-//W3C//DTD SVG 1.1//EN"
 "http://www.w3.org/Graphics/SVG/1.1/DTD/svg11.dtd">
<!-- Generated by graphviz version 15.0.0 (20260523.1842)
 -->
<!-- Title: FunctionPanel::buildStegoTab Pages: 1 -->
<svg width="1138pt" height="97pt"
 viewBox="0.00 0.00 1138.00 97.00" xmlns="http://www.w3.org/2000/svg" xmlns:xlink="http://www.w3.org/1999/xlink">
<g id="graph0" class="graph" transform="scale(1 1) rotate(0) translate(4 93)">
<title>FunctionPanel::buildStegoTab</title>
<!-- Node1 -->
<g id="Node000001" class="node">
<title>Node1</title>
<g id="a_Node000001"><a xlink:title=" ">
<polygon fill="#999999" stroke="#666666" points="145.75,-48 0,-48 0,-28 145.75,-28 145.75,-48"/>
<text xml:space="preserve" text-anchor="middle" x="72.88" y="-34.5" font-family="Helvetica,sans-Serif" font-size="10.00">FunctionPanel::buildStegoTab</text>
</a>
</g>
</g>
<!-- Node2 -->
<g id="Node000002" class="node">
<title>Node2</title>
<g id="a_Node000002"><a xlink:href="class_function_panel.html#a22a6f067f8e61ce0cc829b254701e25c" target="_top" xlink:title=" ">
<polygon fill="white" stroke="#666666" points="332,-70 181.75,-70 181.75,-50 332,-50 332,-70"/>
<text xml:space="preserve" text-anchor="middle" x="256.88" y="-56.5" font-family="Helvetica,sans-Serif" font-size="10.00">FunctionPanel::onEmbedAudio</text>
</a>
</g>
</g>
<!-- Node1&#45;&gt;Node2 -->
<g id="edge1_Node000001_Node000002" class="edge">
<title>Node1&#45;&gt;Node2</title>
<g id="a_edge1_Node000001_Node000002"><a xlink:title=" ">
<path fill="none" stroke="#63b8ff" d="M146.07,-46.73C153.96,-47.68 162.05,-48.66 170.08,-49.63"/>
<polygon fill="#63b8ff" stroke="#63b8ff" points="169.53,-53.09 179.88,-50.81 170.37,-46.14 169.53,-53.09"/>
</a>
</g>
</g>
<!-- Node11 -->
<g id="Node000011" class="node">
<title>Node11</title>
<g id="a_Node000011"><a xlink:href="class_function_panel.html#a71915838c272980f83b01743da9606c7" target="_top" xlink:title=" ">
<polygon fill="white" stroke="#666666" points="320,-32 193.75,-32 193.75,0 320,0 320,-32"/>
<text xml:space="preserve" text-anchor="start" x="201.75" y="-18.5" font-family="Helvetica,sans-Serif" font-size="10.00">FunctionPanel::onExtract</text>
<text xml:space="preserve" text-anchor="middle" x="256.88" y="-6.5" font-family="Helvetica,sans-Serif" font-size="10.00">Audio</text>
</a>
</g>
</g>
<!-- Node1&#45;&gt;Node11 -->
<g id="edge10_Node000001_Node000011" class="edge">
<title>Node1&#45;&gt;Node11</title>
<g id="a_edge10_Node000001_Node000011"><a xlink:title=" ">
<path fill="none" stroke="#63b8ff" d="M146.07,-29.27C157.95,-27.84 170.28,-26.35 182.2,-24.91"/>
<polygon fill="#63b8ff" stroke="#63b8ff" points="182.46,-28.4 191.97,-23.72 181.62,-21.45 182.46,-28.4"/>
</a>
</g>
</g>
<!-- Node3 -->
<g id="Node000003" class="node">
<title>Node3</title>
<g id="a_Node000003"><a xlink:href="class_network_manager.html#a160c056e7177dbe9686310e4896326d6" target="_top" xlink:title=" ">
<polygon fill="white" stroke="#666666" points="518.62,-68 371.38,-68 371.38,-48 518.62,-48 518.62,-68"/>
<text xml:space="preserve" text-anchor="middle" x="445" y="-54.5" font-family="Helvetica,sans-Serif" font-size="10.00">NetworkManager::getInstance</text>
</a>
</g>
</g>
<!-- Node2&#45;&gt;Node3 -->
<g id="edge2_Node000002_Node000003" class="edge">
<title>Node2&#45;&gt;Node3</title>
<g id="a_edge2_Node000002_Node000003"><a xlink:title=" ">
<path fill="none" stroke="#63b8ff" d="M332.24,-59.2C341.21,-59.1 350.42,-59.01 359.52,-58.91"/>
<polygon fill="#63b8ff" stroke="#63b8ff" points="359.49,-62.41 369.45,-58.8 359.42,-55.41 359.49,-62.41"/>
</a>
</g>
</g>
<!-- Node9 -->
<g id="Node000009" class="node">
<title>Node9</title>
<g id="a_Node000009"><a xlink:href="class_network_manager.html#a00f9107b88e93c583b4fd540b6dedf1a" target="_top" xlink:title="Отправить JSON&#45;запрос.">
<polygon fill="white" stroke="#666666" points="522,-29 368,-29 368,-9 522,-9 522,-29"/>
<text xml:space="preserve" text-anchor="middle" x="445" y="-15.5" font-family="Helvetica,sans-Serif" font-size="10.00">NetworkManager::sendRequest</text>
</a>
</g>
</g>
<!-- Node2&#45;&gt;Node9 -->
<g id="edge8_Node000002_Node000009" class="edge">
<title>Node2&#45;&gt;Node9</title>
<g id="a_edge8_Node000002_Node000009"><a xlink:title=" ">
<path fill="none" stroke="#63b8ff" d="M305.32,-49.55C329.72,-44.17 359.66,-37.58 385.48,-31.89"/>
<polygon fill="#63b8ff" stroke="#63b8ff" points="386.15,-35.33 395.16,-29.76 384.64,-28.49 386.15,-35.33"/>
</a>
</g>
</g>
<!-- Node4 -->
<g id="Node000004" class="node">
<title>Node4</title>
<g id="a_Node000004"><a xlink:href="class_network_manager.html#a5aaf71c4aa7a2efab7f1dbae02312280" target="_top" xlink:title=" ">
<polygon fill="white" stroke="#666666" points="728.5,-68 558,-68 558,-48 728.5,-48 728.5,-68"/>
<text xml:space="preserve" text-anchor="middle" x="643.25" y="-54.5" font-family="Helvetica,sans-Serif" font-size="10.00">NetworkManager::NetworkManager</text>
</a>
</g>
</g>
<!-- Node3&#45;&gt;Node4 -->
<g id="edge3_Node000003_Node000004" class="edge">
<title>Node3&#45;&gt;Node4</title>
<g id="a_edge3_Node000003_Node000004"><a xlink:title=" ">
<path fill="none" stroke="#63b8ff" d="M519.08,-58C527.89,-58 536.99,-58 546.07,-58"/>
<polygon fill="#63b8ff" stroke="#63b8ff" points="546.02,-61.5 556.02,-58 546.02,-54.5 546.02,-61.5"/>
</a>
</g>
</g>
<!-- Node5 -->
<g id="Node000005" class="node">
<title>Node5</title>
<g id="a_Node000005"><a xlink:href="class_network_manager.html#a0028518c2761defad4d923b42493463b" target="_top" xlink:title=" ">
<polygon fill="white" stroke="#666666" points="931.25,-87 764.5,-87 764.5,-67 931.25,-67 931.25,-87"/>
<text xml:space="preserve" text-anchor="middle" x="847.88" y="-73.5" font-family="Helvetica,sans-Serif" font-size="10.00">NetworkManager::onDisconnected</text>
</a>
</g>
</g>
<!-- Node4&#45;&gt;Node5 -->
<g id="edge4_Node000004_Node000005" class="edge">
<title>Node4&#45;&gt;Node5</title>
<g id="a_edge4_Node000004_Node000005"><a xlink:title=" ">
<path fill="none" stroke="#63b8ff" d="M728.71,-65.92C736.69,-66.67 744.8,-67.43 752.85,-68.18"/>
<polygon fill="#63b8ff" stroke="#63b8ff" points="752.38,-71.65 762.67,-69.1 753.04,-64.69 752.38,-71.65"/>
</a>
</g>
</g>
<!-- Node7 -->
<g id="Node000007" class="node">
<title>Node7</title>
<g id="a_Node000007"><a xlink:href="class_network_manager.html#a8c95ebaf4720e37c5dfbe3433970c209" target="_top" xlink:title=" ">
<polygon fill="white" stroke="#666666" points="927.12,-46 768.62,-46 768.62,-26 927.12,-26 927.12,-46"/>
<text xml:space="preserve" text-anchor="middle" x="847.88" y="-32.5" font-family="Helvetica,sans-Serif" font-size="10.00">NetworkManager::onReadyRead</text>
</a>
</g>
</g>
<!-- Node4&#45;&gt;Node7 -->
<g id="edge6_Node000004_Node000007" class="edge">
<title>Node4&#45;&gt;Node7</title>
<g id="a_edge6_Node000004_Node000007"><a xlink:title=" ">
<path fill="none" stroke="#63b8ff" d="M728.71,-48.83C738.06,-47.82 747.59,-46.78 757,-45.76"/>
<polygon fill="#63b8ff" stroke="#63b8ff" points="757.31,-49.24 766.88,-44.69 756.56,-42.29 757.31,-49.24"/>
</a>
</g>
</g>
<!-- Node6 -->
<g id="Node000006" class="node">
<title>Node6</title>
<g id="a_Node000006"><a xlink:href="class_network_manager.html#ac6ae166f8298c7dcd6c047af4e032417" target="_top" xlink:title=" ">
<polygon fill="white" stroke="#666666" points="1129.5,-89 967.25,-89 967.25,-69 1129.5,-69 1129.5,-89"/>
<text xml:space="preserve" text-anchor="middle" x="1048.38" y="-75.5" font-family="Helvetica,sans-Serif" font-size="10.00">NetworkManager::connectionLost</text>
</a>
</g>
</g>
<!-- Node5&#45;&gt;Node6 -->
<g id="edge5_Node000005_Node000006" class="edge">
<title>Node5&#45;&gt;Node6</title>
<g id="a_edge5_Node000005_Node000006"><a xlink:title=" ">
<path fill="none" stroke="#63b8ff" d="M931.62,-77.83C939.57,-77.91 947.67,-78 955.7,-78.08"/>
<polygon fill="#63b8ff" stroke="#63b8ff" points="955.45,-81.57 965.48,-78.17 955.52,-74.57 955.45,-81.57"/>
</a>
</g>
</g>
<!-- Node8 -->
<g id="Node000008" class="node">
<title>Node8</title>
<g id="a_Node000008"><a xlink:href="class_network_manager.html#aaf71ebc15b863819ebb5705bc41ad93d" target="_top" xlink:title=" ">
<polygon fill="white" stroke="#666666" points="1116.38,-51 980.38,-51 980.38,-19 1116.38,-19 1116.38,-51"/>
<text xml:space="preserve" text-anchor="start" x="988.38" y="-37.5" font-family="Helvetica,sans-Serif" font-size="10.00">NetworkManager::response</text>
<text xml:space="preserve" text-anchor="middle" x="1048.38" y="-25.5" font-family="Helvetica,sans-Serif" font-size="10.00">Received</text>
</a>
</g>
</g>
<!-- Node7&#45;&gt;Node8 -->
<g id="edge7_Node000007_Node000008" class="edge">
<title>Node7&#45;&gt;Node8</title>
<g id="a_edge7_Node000007_Node000008"><a xlink:title=" ">
<path fill="none" stroke="#63b8ff" d="M927.61,-35.6C941.14,-35.54 955.2,-35.46 968.73,-35.4"/>
<polygon fill="#63b8ff" stroke="#63b8ff" points="968.45,-38.9 978.43,-35.35 968.42,-31.9 968.45,-38.9"/>
</a>
</g>
</g>
<!-- Node10 -->
<g id="Node000010" class="node">
<title>Node10</title>
<g id="a_Node000010"><a xlink:href="class_network_manager.html#a97d1fb741f609c2442efdfd92e944ed2" target="_top" xlink:title=" ">
<polygon fill="white" stroke="#666666" points="718.75,-29 567.75,-29 567.75,-9 718.75,-9 718.75,-29"/>
<text xml:space="preserve" text-anchor="middle" x="643.25" y="-15.5" font-family="Helvetica,sans-Serif" font-size="10.00">NetworkManager::isConnected</text>
</a>
</g>
</g>
<!-- Node9&#45;&gt;Node10 -->
<g id="edge9_Node000009_Node000010" class="edge">
<title>Node9&#45;&gt;Node10</title>
<g id="a_edge9_Node000009_Node000010"><a xlink:title=" ">
<path fill="none" stroke="#63b8ff" d="M522.44,-19C533.38,-19 544.7,-19 555.82,-19"/>
<polygon fill="#63b8ff" stroke="#63b8ff" points="555.8,-22.5 565.8,-19 555.8,-15.5 555.8,-22.5"/>
</a>
</g>
</g>
<!-- Node11&#45;&gt;Node3 -->
<g id="edge11_Node000011_Node000003" class="edge">
<title>Node11&#45;&gt;Node3</title>
<g id="a_edge11_Node000011_Node000003"><a xlink:title=" ">
<path fill="none" stroke="#63b8ff" d="M320.37,-30.1C341.76,-34.93 365.58,-40.31 386.56,-45.04"/>
<polygon fill="#63b8ff" stroke="#63b8ff" points="385.56,-48.4 396.09,-47.19 387.1,-41.57 385.56,-48.4"/>
</a>
</g>
</g>
<!-- Node11&#45;&gt;Node9 -->
<g id="edge12_Node000011_Node000009" class="edge">
<title>Node11&#45;&gt;Node9</title>
<g id="a_edge12_Node000011_Node000009"><a xlink:title=" ">
<path fill="none" stroke="#63b8ff" d="M320.37,-17.01C332.01,-17.19 344.37,-17.39 356.6,-17.59"/>
<polygon fill="#63b8ff" stroke="#63b8ff" points="356.21,-21.09 366.26,-17.75 356.32,-14.09 356.21,-21.09"/>
</a>
</g>
</g>
</g>
</svg>
