<?xml version="1.0" encoding="UTF-8" standalone="no"?>
<!DOCTYPE svg PUBLIC "-//W3C//DTD SVG 1.1//EN"
 "http://www.w3.org/Graphics/SVG/1.1/DTD/svg11.dtd">
<!-- Generated by graphviz version 15.0.0 (20260523.1842)
 -->
<!-- Title: LoginWindow::LoginWindow Pages: 1 -->
<svg width="1275pt" height="198pt"
 viewBox="0.00 0.00 1275.00 198.00" xmlns="http://www.w3.org/2000/svg" xmlns:xlink="http://www.w3.org/1999/xlink">
<g id="graph0" class="graph" transform="scale(1 1) rotate(0) translate(4 194)">
<title>LoginWindow::LoginWindow</title>
<!-- Node1 -->
<g id="Node000001" class="node">
<title>Node1</title>
<g id="a_Node000001"><a xlink:title=" ">
<polygon fill="#999999" stroke="#666666" points="139,-105 0,-105 0,-85 139,-85 139,-105"/>
<text xml:space="preserve" text-anchor="middle" x="69.5" y="-91.5" font-family="Helvetica,sans-Serif" font-size="10.00">LoginWindow::LoginWindow</text>
</a>
</g>
</g>
<!-- Node2 -->
<g id="Node000002" class="node">
<title>Node2</title>
<g id="a_Node000002"><a xlink:href="class_network_manager.html#a160c056e7177dbe9686310e4896326d6" target="_top" xlink:title=" ">
<polygon fill="white" stroke="#666666" points="651.62,-105 504.38,-105 504.38,-85 651.62,-85 651.62,-105"/>
<text xml:space="preserve" text-anchor="middle" x="578" y="-91.5" font-family="Helvetica,sans-Serif" font-size="10.00">NetworkManager::getInstance</text>
</a>
</g>
</g>
<!-- Node1&#45;&gt;Node2 -->
<g id="edge1_Node000001_Node000002" class="edge">
<title>Node1&#45;&gt;Node2</title>
<g id="a_edge1_Node000001_Node000002"><a xlink:title=" ">
<path fill="none" stroke="#63b8ff" d="M139.34,-95C231.18,-95 393.7,-95 492.76,-95"/>
<polygon fill="#63b8ff" stroke="#63b8ff" points="492.7,-98.5 502.7,-95 492.7,-91.5 492.7,-98.5"/>
</a>
</g>
</g>
<!-- Node7 -->
<g id="Node000007" class="node">
<title>Node7</title>
<g id="a_Node000007"><a xlink:href="class_network_manager.html#aaf71ebc15b863819ebb5705bc41ad93d" target="_top" xlink:title=" ">
<polygon fill="white" stroke="#666666" points="1253.88,-32 1117.88,-32 1117.88,0 1253.88,0 1253.88,-32"/>
<text xml:space="preserve" text-anchor="start" x="1125.88" y="-18.5" font-family="Helvetica,sans-Serif" font-size="10.00">NetworkManager::response</text>
<text xml:space="preserve" text-anchor="middle" x="1185.88" y="-6.5" font-family="Helvetica,sans-Serif" font-size="10.00">Received</text>
</a>
</g>
</g>
<!-- Node1&#45;&gt;Node7 -->
<g id="edge12_Node000001_Node000007" class="edge">
<title>Node1&#45;&gt;Node7</title>
<g id="a_edge12_Node000001_Node000007"><a xlink:title=" ">
<path fill="none" stroke="#63b8ff" d="M90.57,-84.65C140.24,-60.03 273.48,0 391.88,0 391.88,0 391.88,0 781.75,0 894.64,0 1025.16,-6.34 1106.38,-11.04"/>
<polygon fill="#63b8ff" stroke="#63b8ff" points="1105.8,-14.51 1115.99,-11.6 1106.21,-7.52 1105.8,-14.51"/>
</a>
</g>
</g>
<!-- Node8 -->
<g id="Node000008" class="node">
<title>Node8</title>
<g id="a_Node000008"><a xlink:href="class_login_window.html#ae4412a9e90a05b4e066ec353f2e83795" target="_top" xlink:title=" ">
<polygon fill="white" stroke="#666666" points="460.5,-162 325.25,-162 325.25,-142 460.5,-142 460.5,-162"/>
<text xml:space="preserve" text-anchor="middle" x="392.88" y="-148.5" font-family="Helvetica,sans-Serif" font-size="10.00">LoginWindow::onResponse</text>
</a>
</g>
</g>
<!-- Node1&#45;&gt;Node8 -->
<g id="edge7_Node000001_Node000008" class="edge">
<title>Node1&#45;&gt;Node8</title>
<g id="a_edge7_Node000001_Node000008"><a xlink:title=" ">
<path fill="none" stroke="#63b8ff" d="M98.49,-105.48C119.31,-112.88 148.57,-122.42 175,-128 220.4,-137.58 272,-143.49 313.48,-147.05"/>
<polygon fill="#63b8ff" stroke="#63b8ff" points="313.13,-150.53 323.39,-147.86 313.71,-143.55 313.13,-150.53"/>
</a>
</g>
</g>
<!-- Node12 -->
<g id="Node000012" class="node">
<title>Node12</title>
<g id="a_Node000012"><a xlink:href="class_login_window.html#a87a24faaa152fc9017988fe5c48bb4c8" target="_top" xlink:title=" ">
<polygon fill="white" stroke="#666666" points="289.25,-86 175,-86 175,-66 289.25,-66 289.25,-86"/>
<text xml:space="preserve" text-anchor="middle" x="232.12" y="-72.5" font-family="Helvetica,sans-Serif" font-size="10.00">LoginWindow::setupUi</text>
</a>
</g>
</g>
<!-- Node1&#45;&gt;Node12 -->
<g id="edge13_Node000001_Node000012" class="edge">
<title>Node1&#45;&gt;Node12</title>
<g id="a_edge13_Node000001_Node000012"><a xlink:title=" ">
<path fill="none" stroke="#63b8ff" d="M139.09,-86.89C147.2,-85.93 155.48,-84.95 163.58,-83.99"/>
<polygon fill="#63b8ff" stroke="#63b8ff" points="163.85,-87.48 173.37,-82.83 163.03,-80.53 163.85,-87.48"/>
</a>
</g>
</g>
<!-- Node3 -->
<g id="Node000003" class="node">
<title>Node3</title>
<g id="a_Node000003"><a xlink:href="class_network_manager.html#a5aaf71c4aa7a2efab7f1dbae02312280" target="_top" xlink:title=" ">
<polygon fill="white" stroke="#666666" points="866,-86 695.5,-86 695.5,-66 866,-66 866,-86"/>
<text xml:space="preserve" text-anchor="middle" x="780.75" y="-72.5" font-family="Helvetica,sans-Serif" font-size="10.00">NetworkManager::NetworkManager</text>
</a>
</g>
</g>
<!-- Node2&#45;&gt;Node3 -->
<g id="edge2_Node000002_Node000003" class="edge">
<title>Node2&#45;&gt;Node3</title>
<g id="a_edge2_Node000002_Node000003"><a xlink:title=" ">
<path fill="none" stroke="#63b8ff" d="M652.04,-88.09C662.44,-87.1 673.27,-86.08 684.02,-85.06"/>
<polygon fill="#63b8ff" stroke="#63b8ff" points="684.05,-88.57 693.67,-84.15 683.39,-81.6 684.05,-88.57"/>
</a>
</g>
</g>
<!-- Node4 -->
<g id="Node000004" class="node">
<title>Node4</title>
<g id="a_Node000004"><a xlink:href="class_network_manager.html#a0028518c2761defad4d923b42493463b" target="_top" xlink:title=" ">
<polygon fill="white" stroke="#666666" points="1068.75,-86 902,-86 902,-66 1068.75,-66 1068.75,-86"/>
<text xml:space="preserve" text-anchor="middle" x="985.38" y="-72.5" font-family="Helvetica,sans-Serif" font-size="10.00">NetworkManager::onDisconnected</text>
</a>
</g>
</g>
<!-- Node3&#45;&gt;Node4 -->
<g id="edge3_Node000003_Node000004" class="edge">
<title>Node3&#45;&gt;Node4</title>
<g id="a_edge3_Node000003_Node000004"><a xlink:title=" ">
<path fill="none" stroke="#63b8ff" d="M866.21,-76C874.19,-76 882.3,-76 890.35,-76"/>
<polygon fill="#63b8ff" stroke="#63b8ff" points="890.16,-79.5 900.16,-76 890.16,-72.5 890.16,-79.5"/>
</a>
</g>
</g>
<!-- Node6 -->
<g id="Node000006" class="node">
<title>Node6</title>
<g id="a_Node000006"><a xlink:href="class_network_manager.html#a8c95ebaf4720e37c5dfbe3433970c209" target="_top" xlink:title=" ">
<polygon fill="white" stroke="#666666" points="1064.62,-48 906.12,-48 906.12,-28 1064.62,-28 1064.62,-48"/>
<text xml:space="preserve" text-anchor="middle" x="985.38" y="-34.5" font-family="Helvetica,sans-Serif" font-size="10.00">NetworkManager::onReadyRead</text>
</a>
</g>
</g>
<!-- Node3&#45;&gt;Node6 -->
<g id="edge5_Node000003_Node000006" class="edge">
<title>Node3&#45;&gt;Node6</title>
<g id="a_edge5_Node000003_Node000006"><a xlink:title=" ">
<path fill="none" stroke="#63b8ff" d="M837.65,-65.52C862.35,-60.88 891.58,-55.4 917.43,-50.56"/>
<polygon fill="#63b8ff" stroke="#63b8ff" points="917.98,-54.01 927.17,-48.73 916.69,-47.13 917.98,-54.01"/>
</a>
</g>
</g>
<!-- Node5 -->
<g id="Node000005" class="node">
<title>Node5</title>
<g id="a_Node000005"><a xlink:href="class_network_manager.html#ac6ae166f8298c7dcd6c047af4e032417" target="_top" xlink:title=" ">
<polygon fill="white" stroke="#666666" points="1267,-86 1104.75,-86 1104.75,-66 1267,-66 1267,-86"/>
<text xml:space="preserve" text-anchor="middle" x="1185.88" y="-72.5" font-family="Helvetica,sans-Serif" font-size="10.00">NetworkManager::connectionLost</text>
</a>
</g>
</g>
<!-- Node4&#45;&gt;Node5 -->
<g id="edge4_Node000004_Node000005" class="edge">
<title>Node4&#45;&gt;Node5</title>
<g id="a_edge4_Node000004_Node000005"><a xlink:title=" ">
<path fill="none" stroke="#63b8ff" d="M1069.12,-76C1077.07,-76 1085.17,-76 1093.2,-76"/>
<polygon fill="#63b8ff" stroke="#63b8ff" points="1092.98,-79.5 1102.98,-76 1092.98,-72.5 1092.98,-79.5"/>
</a>
</g>
</g>
<!-- Node6&#45;&gt;Node7 -->
<g id="edge6_Node000006_Node000007" class="edge">
<title>Node6&#45;&gt;Node7</title>
<g id="a_edge6_Node000006_Node000007"><a xlink:title=" ">
<path fill="none" stroke="#63b8ff" d="M1065.11,-29.27C1078.64,-27.77 1092.7,-26.22 1106.23,-24.72"/>
<polygon fill="#63b8ff" stroke="#63b8ff" points="1106.39,-28.22 1115.94,-23.64 1105.62,-21.26 1106.39,-28.22"/>
</a>
</g>
</g>
<!-- Node8&#45;&gt;Node2 -->
<g id="edge8_Node000008_Node000002" class="edge">
<title>Node8&#45;&gt;Node2</title>
<g id="a_edge8_Node000008_Node000002"><a xlink:title=" ">
<path fill="none" stroke="#63b8ff" d="M427.46,-141.55C456.93,-132.37 500,-118.97 532.36,-108.9"/>
<polygon fill="#63b8ff" stroke="#63b8ff" points="533.36,-112.25 541.87,-105.93 531.28,-105.56 533.36,-112.25"/>
</a>
</g>
</g>
<!-- Node9 -->
<g id="Node000009" class="node">
<title>Node9</title>
<g id="a_Node000009"><a xlink:href="class_login_window.html#a1cbdd5a9f471d6e948d1565f5c18022b" target="_top" xlink:title=" ">
<polygon fill="white" stroke="#666666" points="647.5,-152 508.5,-152 508.5,-132 647.5,-132 647.5,-152"/>
<text xml:space="preserve" text-anchor="middle" x="578" y="-138.5" font-family="Helvetica,sans-Serif" font-size="10.00">LoginWindow::loginSuccess</text>
</a>
</g>
</g>
<!-- Node8&#45;&gt;Node9 -->
<g id="edge9_Node000008_Node000009" class="edge">
<title>Node8&#45;&gt;Node9</title>
<g id="a_edge9_Node000008_Node000009"><a xlink:title=" ">
<path fill="none" stroke="#63b8ff" d="M460.76,-148.35C472.46,-147.71 484.73,-147.04 496.74,-146.38"/>
<polygon fill="#63b8ff" stroke="#63b8ff" points="496.84,-149.88 506.63,-145.84 496.45,-142.89 496.84,-149.88"/>
</a>
</g>
</g>
<!-- Node10 -->
<g id="Node000010" class="node">
<title>Node10</title>
<g id="a_Node000010"><a xlink:href="class_network_manager.html#af4650242e7c7996a577852a41f8a0810" target="_top" xlink:title=" ">
<polygon fill="white" stroke="#666666" points="659.5,-190 496.5,-190 496.5,-170 659.5,-170 659.5,-190"/>
<text xml:space="preserve" text-anchor="middle" x="578" y="-176.5" font-family="Helvetica,sans-Serif" font-size="10.00">NetworkManager::setCurrentUser</text>
</a>
</g>
</g>
<!-- Node8&#45;&gt;Node10 -->
<g id="edge10_Node000008_Node000010" class="edge">
<title>Node8&#45;&gt;Node10</title>
<g id="a_edge10_Node000008_Node000010"><a xlink:title=" ">
<path fill="none" stroke="#63b8ff" d="M460.76,-162.23C472.65,-164.05 485.15,-165.96 497.35,-167.82"/>
<polygon fill="#63b8ff" stroke="#63b8ff" points="496.54,-171.24 506.95,-169.29 497.6,-164.32 496.54,-171.24"/>
</a>
</g>
</g>
<!-- Node11 -->
<g id="Node000011" class="node">
<title>Node11</title>
<g id="a_Node000011"><a xlink:href="class_login_window.html#a4095f3828566b4386908dc2844c28f1d" target="_top" xlink:title=" ">
<polygon fill="white" stroke="#666666" points="639.25,-67 516.75,-67 516.75,-47 639.25,-47 639.25,-67"/>
<text xml:space="preserve" text-anchor="middle" x="578" y="-53.5" font-family="Helvetica,sans-Serif" font-size="10.00">LoginWindow::setStatus</text>
</a>
</g>
</g>
<!-- Node8&#45;&gt;Node11 -->
<g id="edge11_Node000008_Node000011" class="edge">
<title>Node8&#45;&gt;Node11</title>
<g id="a_edge11_Node000008_Node000011"><a xlink:title=" ">
<path fill="none" stroke="#63b8ff" d="M404.59,-141.69C422.27,-125.27 459.3,-93.27 496.5,-76 500.49,-74.15 504.68,-72.47 508.96,-70.94"/>
<polygon fill="#63b8ff" stroke="#63b8ff" points="509.84,-74.34 518.29,-67.94 507.69,-67.67 509.84,-74.34"/>
</a>
</g>
</g>
<!-- Node13 -->
<g id="Node000013" class="node">
<title>Node13</title>
<g id="a_Node000013"><a xlink:href="class_login_window.html#aa0eff66887b5d6e4b5edefeeaccc93c4" target="_top" xlink:title=" ">
<polygon fill="white" stroke="#666666" points="450,-86 335.75,-86 335.75,-66 450,-66 450,-86"/>
<text xml:space="preserve" text-anchor="middle" x="392.88" y="-72.5" font-family="Helvetica,sans-Serif" font-size="10.00">LoginWindow::onLogin</text>
</a>
</g>
</g>
<!-- Node12&#45;&gt;Node13 -->
<g id="edge14_Node000012_Node000013" class="edge">
<title>Node12&#45;&gt;Node13</title>
<g id="a_edge14_Node000012_Node000013"><a xlink:title=" ">
<path fill="none" stroke="#63b8ff" d="M289.54,-76C300.7,-76 312.53,-76 324.02,-76"/>
<polygon fill="#63b8ff" stroke="#63b8ff" points="323.86,-79.5 333.86,-76 323.86,-72.5 323.86,-79.5"/>
</a>
</g>
</g>
<!-- Node14 -->
<g id="Node000014" class="node">
<title>Node14</title>
<g id="a_Node000014"><a xlink:href="class_login_window.html#a204a22ca9e09efd75f5bb3130bdd9ca3" target="_top" xlink:title=" ">
<polygon fill="white" stroke="#666666" points="456.75,-48 329,-48 329,-28 456.75,-28 456.75,-48"/>
<text xml:space="preserve" text-anchor="middle" x="392.88" y="-34.5" font-family="Helvetica,sans-Serif" font-size="10.00">LoginWindow::onRegister</text>
</a>
</g>
</g>
<!-- Node12&#45;&gt;Node14 -->
<g id="edge17_Node000012_Node000014" class="edge">
<title>Node12&#45;&gt;Node14</title>
<g id="a_edge17_Node000012_Node000014"><a xlink:title=" ">
<path fill="none" stroke="#63b8ff" d="M276.92,-65.52C295.58,-61.05 317.53,-55.79 337.23,-51.08"/>
<polygon fill="#63b8ff" stroke="#63b8ff" points="337.84,-54.53 346.75,-48.8 336.21,-47.73 337.84,-54.53"/>
</a>
</g>
</g>
<!-- Node13&#45;&gt;Node2 -->
<g id="edge15_Node000013_Node000002" class="edge">
<title>Node13&#45;&gt;Node2</title>
<g id="a_edge15_Node000013_Node000002"><a xlink:title=" ">
<path fill="none" stroke="#63b8ff" d="M450.31,-81.86C463.88,-83.26 478.66,-84.8 493.18,-86.3"/>
<polygon fill="#63b8ff" stroke="#63b8ff" points="492.39,-89.74 502.7,-87.29 493.11,-82.78 492.39,-89.74"/>
</a>
</g>
</g>
<!-- Node13&#45;&gt;Node11 -->
<g id="edge16_Node000013_Node000011" class="edge">
<title>Node13&#45;&gt;Node11</title>
<g id="a_edge16_Node000013_Node000011"><a xlink:title=" ">
<path fill="none" stroke="#63b8ff" d="M450.31,-70.14C467.55,-68.36 486.74,-66.36 504.87,-64.48"/>
<polygon fill="#63b8ff" stroke="#63b8ff" points="505.21,-67.97 514.79,-63.45 504.48,-61.01 505.21,-67.97"/>
</a>
</g>
</g>
<!-- Node14&#45;&gt;Node2 -->
<g id="edge18_Node000014_Node000002" class="edge">
<title>Node14&#45;&gt;Node2</title>
<g id="a_edge18_Node000014_Node000002"><a xlink:title=" ">
<path fill="none" stroke="#63b8ff" d="M435.55,-48.44C443.92,-50.94 452.57,-53.82 460.5,-57 477.29,-63.74 479.56,-69.65 496.5,-76 501.83,-78 507.43,-79.83 513.1,-81.5"/>
<polygon fill="#63b8ff" stroke="#63b8ff" points="512,-84.83 522.57,-84.12 513.86,-78.08 512,-84.83"/>
</a>
</g>
</g>
<!-- Node14&#45;&gt;Node11 -->
<g id="edge19_Node000014_Node000011" class="edge">
<title>Node14&#45;&gt;Node11</title>
<g id="a_edge19_Node000014_Node000011"><a xlink:title=" ">
<path fill="none" stroke="#63b8ff" d="M457.15,-44.57C472.63,-46.17 489.29,-47.9 505.14,-49.54"/>
<polygon fill="#63b8ff" stroke="#63b8ff" points="504.68,-53.02 514.99,-50.57 505.41,-46.05 504.68,-53.02"/>
</a>
</g>
</g>
</g>
</svg>
