<?xml version="1.0" encoding="UTF-8" standalone="no"?>
<!DOCTYPE svg PUBLIC "-//W3C//DTD SVG 1.1//EN"
 "http://www.w3.org/Graphics/SVG/1.1/DTD/svg11.dtd">
<!-- Generated by graphviz version 15.0.0 (20260523.1842)
 -->
<!-- Title: FunctionPanel::onEmbedAudio Pages: 1 -->
<svg width="677pt" height="28pt"
 viewBox="0.00 0.00 677.00 28.00" xmlns="http://www.w3.org/2000/svg" xmlns:xlink="http://www.w3.org/1999/xlink">
<g id="graph0" class="graph" transform="scale(1 1) rotate(0) translate(4 24)">
<title>FunctionPanel::onEmbedAudio</title>
<!-- Node1 -->
<g id="Node000001" class="node">
<title>Node1</title>
<g id="a_Node000001"><a xlink:title=" ">
<polygon fill="#999999" stroke="#666666" points="668.5,-20 518.25,-20 518.25,0 668.5,0 668.5,-20"/>
<text xml:space="preserve" text-anchor="middle" x="593.38" y="-6.5" font-family="Helvetica,sans-Serif" font-size="10.00">FunctionPanel::onEmbedAudio</text>
</a>
</g>
</g>
<!-- Node2 -->
<g id="Node000002" class="node">
<title>Node2</title>
<g id="a_Node000002"><a xlink:href="class_function_panel.html#a7067dea9591465da0ffe51665a50c3ae" target="_top" xlink:title=" ">
<polygon fill="white" stroke="#666666" points="482.25,-20 336.5,-20 336.5,0 482.25,0 482.25,-20"/>
<text xml:space="preserve" text-anchor="middle" x="409.38" y="-6.5" font-family="Helvetica,sans-Serif" font-size="10.00">FunctionPanel::buildStegoTab</text>
</a>
</g>
</g>
<!-- Node1&#45;&gt;Node2 -->
<g id="edge1_Node000001_Node000002" class="edge">
<title>Node1&#45;&gt;Node2</title>
<g id="a_edge1_Node000001_Node000002"><a xlink:title=" ">
<path fill="none" stroke="#63b8ff" d="M506.51,-10C498.46,-10 490.36,-10 482.46,-10"/>
<polygon fill="#63b8ff" stroke="#63b8ff" points="506.31,-13.5 516.31,-10 506.31,-6.5 506.31,-13.5"/>
</a>
</g>
</g>
<!-- Node3 -->
<g id="Node000003" class="node">
<title>Node3</title>
<g id="a_Node000003"><a xlink:href="class_function_panel.html#acc9f052b6a2a9a9acd404608a607e230" target="_top" xlink:title=" ">
<polygon fill="white" stroke="#666666" points="300.5,-20 182.5,-20 182.5,0 300.5,0 300.5,-20"/>
<text xml:space="preserve" text-anchor="middle" x="241.5" y="-6.5" font-family="Helvetica,sans-Serif" font-size="10.00">FunctionPanel::setupUi</text>
</a>
</g>
</g>
<!-- Node2&#45;&gt;Node3 -->
<g id="edge2_Node000002_Node000003" class="edge">
<title>Node2&#45;&gt;Node3</title>
<g id="a_edge2_Node000002_Node000003"><a xlink:title=" ">
<path fill="none" stroke="#63b8ff" d="M324.72,-10C316.65,-10 308.59,-10 300.84,-10"/>
<polygon fill="#63b8ff" stroke="#63b8ff" points="324.59,-13.5 334.59,-10 324.59,-6.5 324.59,-13.5"/>
</a>
</g>
</g>
<!-- Node4 -->
<g id="Node000004" class="node">
<title>Node4</title>
<g id="a_Node000004"><a xlink:href="class_function_panel.html#a2d5d7db3a79e75cfd2d941941e4ff985" target="_top" xlink:title=" ">
<polygon fill="white" stroke="#666666" points="146.5,-20 0,-20 0,0 146.5,0 146.5,-20"/>
<text xml:space="preserve" text-anchor="middle" x="73.25" y="-6.5" font-family="Helvetica,sans-Serif" font-size="10.00">FunctionPanel::FunctionPanel</text>
</a>
</g>
</g>
<!-- Node3&#45;&gt;Node4 -->
<g id="edge3_Node000003_Node000004" class="edge">
<title>Node3&#45;&gt;Node4</title>
<g id="a_edge3_Node000003_Node000004"><a xlink:title=" ">
<path fill="none" stroke="#63b8ff" d="M170.92,-10C163.01,-10 154.93,-10 146.98,-10"/>
<polygon fill="#63b8ff" stroke="#63b8ff" points="170.84,-13.5 180.84,-10 170.84,-6.5 170.84,-13.5"/>
</a>
</g>
</g>
</g>
</svg>
