<?xml version="1.0" encoding="UTF-8" standalone="no"?>
<!DOCTYPE svg PUBLIC "-//W3C//DTD SVG 1.1//EN"
 "http://www.w3.org/Graphics/SVG/1.1/DTD/svg11.dtd">
<!-- Generated by graphviz version 15.0.0 (20260523.1842)
 -->
<!-- Title: AdminPanel::refresh Pages: 1 -->
<svg width="441pt" height="47pt"
 viewBox="0.00 0.00 441.00 47.00" xmlns="http://www.w3.org/2000/svg" xmlns:xlink="http://www.w3.org/1999/xlink">
<g id="graph0" class="graph" transform="scale(1 1) rotate(0) translate(4 43)">
<title>AdminPanel::refresh</title>
<!-- Node1 -->
<g id="Node000001" class="node">
<title>Node1</title>
<g id="a_Node000001"><a xlink:title=" ">
<polygon fill="#999999" stroke="#666666" points="432.75,-39 328.25,-39 328.25,-19 432.75,-19 432.75,-39"/>
<text xml:space="preserve" text-anchor="middle" x="380.5" y="-25.5" font-family="Helvetica,sans-Serif" font-size="10.00">AdminPanel::refresh</text>
</a>
</g>
</g>
<!-- Node2 -->
<g id="Node000002" class="node">
<title>Node2</title>
<g id="a_Node000002"><a xlink:href="class_admin_panel.html#ac08bfe38bdadbc173f63daba4d0ee54f" target="_top" xlink:title=" ">
<polygon fill="white" stroke="#666666" points="127,-39 0,-39 0,-19 127,-19 127,-39"/>
<text xml:space="preserve" text-anchor="middle" x="63.5" y="-25.5" font-family="Helvetica,sans-Serif" font-size="10.00">AdminPanel::AdminPanel</text>
</a>
</g>
</g>
<!-- Node1&#45;&gt;Node2 -->
<g id="edge1_Node000001_Node000002" class="edge">
<title>Node1&#45;&gt;Node2</title>
<g id="a_edge1_Node000001_Node000002"><a xlink:title=" ">
<path fill="none" stroke="#63b8ff" d="M316.5,-29C261.54,-29 182.22,-29 127.32,-29"/>
<polygon fill="#63b8ff" stroke="#63b8ff" points="316.32,-32.5 326.32,-29 316.32,-25.5 316.32,-32.5"/>
</a>
</g>
</g>
<!-- Node3 -->
<g id="Node000003" class="node">
<title>Node3</title>
<g id="a_Node000003"><a xlink:href="class_admin_panel.html#abb38c9620b22656efa51036e40166275" target="_top" xlink:title=" ">
<polygon fill="white" stroke="#666666" points="292.25,-20 163,-20 163,0 292.25,0 292.25,-20"/>
<text xml:space="preserve" text-anchor="middle" x="227.62" y="-6.5" font-family="Helvetica,sans-Serif" font-size="10.00">AdminPanel::onResponse</text>
</a>
</g>
</g>
<!-- Node1&#45;&gt;Node3 -->
<g id="edge2_Node000001_Node000003" class="edge">
<title>Node1&#45;&gt;Node3</title>
<g id="a_edge2_Node000001_Node000003"><a xlink:title=" ">
<path fill="none" stroke="#63b8ff" d="M316.6,-21.08C308.71,-20.08 300.62,-19.07 292.7,-18.07"/>
<polygon fill="#63b8ff" stroke="#63b8ff" points="316.14,-24.55 326.5,-22.33 317.01,-17.6 316.14,-24.55"/>
</a>
</g>
</g>
<!-- Node3&#45;&gt;Node2 -->
<g id="edge3_Node000003_Node000002" class="edge">
<title>Node3&#45;&gt;Node2</title>
<g id="a_edge3_Node000003_Node000002"><a xlink:title=" ">
<path fill="none" stroke="#63b8ff" d="M151.29,-18.83C143.27,-19.77 135.17,-20.72 127.32,-21.64"/>
<polygon fill="#63b8ff" stroke="#63b8ff" points="151.52,-22.33 161.05,-17.69 150.71,-15.37 151.52,-22.33"/>
</a>
</g>
</g>
</g>
</svg>
