<?xml version="1.0" encoding="UTF-8" standalone="no"?>
<!DOCTYPE svg PUBLIC "-//W3C//DTD SVG 1.1//EN"
 "http://www.w3.org/Graphics/SVG/1.1/DTD/svg11.dtd">
<!-- Generated by graphviz version 15.0.0 (20260523.1842)
 -->
<!-- Title: LoginWindow::setupUi Pages: 1 -->
<svg width="1077pt" height="88pt"
 viewBox="0.00 0.00 1077.00 88.00" xmlns="http://www.w3.org/2000/svg" xmlns:xlink="http://www.w3.org/1999/xlink">
<g id="graph0" class="graph" transform="scale(1 1) rotate(0) translate(4 84)">
<title>LoginWindow::setupUi</title>
<!-- Node1 -->
<g id="Node000001" class="node">
<title>Node1</title>
<g id="a_Node000001"><a xlink:title=" ">
<polygon fill="#999999" stroke="#666666" points="114.25,-39 0,-39 0,-19 114.25,-19 114.25,-39"/>
<text xml:space="preserve" text-anchor="middle" x="57.12" y="-25.5" font-family="Helvetica,sans-Serif" font-size="10.00">LoginWindow::setupUi</text>
</a>
</g>
</g>
<!-- Node2 -->
<g id="Node000002" class="node">
<title>Node2</title>
<g id="a_Node000002"><a xlink:href="class_login_window.html#aa0eff66887b5d6e4b5edefeeaccc93c4" target="_top" xlink:title=" ">
<polygon fill="white" stroke="#666666" points="271.25,-58 157,-58 157,-38 271.25,-38 271.25,-58"/>
<text xml:space="preserve" text-anchor="middle" x="214.12" y="-44.5" font-family="Helvetica,sans-Serif" font-size="10.00">LoginWindow::onLogin</text>
</a>
</g>
</g>
<!-- Node1&#45;&gt;Node2 -->
<g id="edge1_Node000001_Node000002" class="edge">
<title>Node1&#45;&gt;Node2</title>
<g id="a_edge1_Node000001_Node000002"><a xlink:title=" ">
<path fill="none" stroke="#63b8ff" d="M114.52,-35.91C124.46,-37.13 134.9,-38.41 145.11,-39.66"/>
<polygon fill="#63b8ff" stroke="#63b8ff" points="144.66,-43.13 155.01,-40.88 145.51,-36.19 144.66,-43.13"/>
</a>
</g>
</g>
<!-- Node10 -->
<g id="Node000010" class="node">
<title>Node10</title>
<g id="a_Node000010"><a xlink:href="class_login_window.html#a204a22ca9e09efd75f5bb3130bdd9ca3" target="_top" xlink:title=" ">
<polygon fill="white" stroke="#666666" points="278,-20 150.25,-20 150.25,0 278,0 278,-20"/>
<text xml:space="preserve" text-anchor="middle" x="214.12" y="-6.5" font-family="Helvetica,sans-Serif" font-size="10.00">LoginWindow::onRegister</text>
</a>
</g>
</g>
<!-- Node1&#45;&gt;Node10 -->
<g id="edge9_Node000001_Node000010" class="edge">
<title>Node1&#45;&gt;Node10</title>
<g id="a_edge9_Node000001_Node000010"><a xlink:title=" ">
<path fill="none" stroke="#63b8ff" d="M114.52,-22.09C122.35,-21.13 130.48,-20.13 138.57,-19.14"/>
<polygon fill="#63b8ff" stroke="#63b8ff" points="138.95,-22.62 148.45,-17.93 138.1,-15.67 138.95,-22.62"/>
</a>
</g>
</g>
<!-- Node3 -->
<g id="Node000003" class="node">
<title>Node3</title>
<g id="a_Node000003"><a xlink:href="class_network_manager.html#a160c056e7177dbe9686310e4896326d6" target="_top" xlink:title=" ">
<polygon fill="white" stroke="#666666" points="461.25,-58 314,-58 314,-38 461.25,-38 461.25,-58"/>
<text xml:space="preserve" text-anchor="middle" x="387.62" y="-44.5" font-family="Helvetica,sans-Serif" font-size="10.00">NetworkManager::getInstance</text>
</a>
</g>
</g>
<!-- Node2&#45;&gt;Node3 -->
<g id="edge2_Node000002_Node000003" class="edge">
<title>Node2&#45;&gt;Node3</title>
<g id="a_edge2_Node000002_Node000003"><a xlink:title=" ">
<path fill="none" stroke="#63b8ff" d="M271.28,-48C281.25,-48 291.83,-48 302.38,-48"/>
<polygon fill="#63b8ff" stroke="#63b8ff" points="302.28,-51.5 312.28,-48 302.28,-44.5 302.28,-51.5"/>
</a>
</g>
</g>
<!-- Node9 -->
<g id="Node000009" class="node">
<title>Node9</title>
<g id="a_Node000009"><a xlink:href="class_login_window.html#a4095f3828566b4386908dc2844c28f1d" target="_top" xlink:title=" ">
<polygon fill="white" stroke="#666666" points="448.88,-20 326.38,-20 326.38,0 448.88,0 448.88,-20"/>
<text xml:space="preserve" text-anchor="middle" x="387.62" y="-6.5" font-family="Helvetica,sans-Serif" font-size="10.00">LoginWindow::setStatus</text>
</a>
</g>
</g>
<!-- Node2&#45;&gt;Node9 -->
<g id="edge8_Node000002_Node000009" class="edge">
<title>Node2&#45;&gt;Node9</title>
<g id="a_edge8_Node000002_Node000009"><a xlink:title=" ">
<path fill="none" stroke="#63b8ff" d="M262.44,-37.52C282.87,-32.99 306.98,-27.65 328.48,-22.88"/>
<polygon fill="#63b8ff" stroke="#63b8ff" points="328.98,-26.36 337.98,-20.78 327.46,-19.52 328.98,-26.36"/>
</a>
</g>
</g>
<!-- Node4 -->
<g id="Node000004" class="node">
<title>Node4</title>
<g id="a_Node000004"><a xlink:href="class_network_manager.html#a5aaf71c4aa7a2efab7f1dbae02312280" target="_top" xlink:title=" ">
<polygon fill="white" stroke="#666666" points="667.75,-58 497.25,-58 497.25,-38 667.75,-38 667.75,-58"/>
<text xml:space="preserve" text-anchor="middle" x="582.5" y="-44.5" font-family="Helvetica,sans-Serif" font-size="10.00">NetworkManager::NetworkManager</text>
</a>
</g>
</g>
<!-- Node3&#45;&gt;Node4 -->
<g id="edge3_Node000003_Node000004" class="edge">
<title>Node3&#45;&gt;Node4</title>
<g id="a_edge3_Node000003_Node000004"><a xlink:title=" ">
<path fill="none" stroke="#63b8ff" d="M461.54,-48C469.37,-48 477.42,-48 485.47,-48"/>
<polygon fill="#63b8ff" stroke="#63b8ff" points="485.31,-51.5 495.31,-48 485.31,-44.5 485.31,-51.5"/>
</a>
</g>
</g>
<!-- Node5 -->
<g id="Node000005" class="node">
<title>Node5</title>
<g id="a_Node000005"><a xlink:href="class_network_manager.html#a0028518c2761defad4d923b42493463b" target="_top" xlink:title=" ">
<polygon fill="white" stroke="#666666" points="870.5,-78 703.75,-78 703.75,-58 870.5,-58 870.5,-78"/>
<text xml:space="preserve" text-anchor="middle" x="787.12" y="-64.5" font-family="Helvetica,sans-Serif" font-size="10.00">NetworkManager::onDisconnected</text>
</a>
</g>
</g>
<!-- Node4&#45;&gt;Node5 -->
<g id="edge4_Node000004_Node000005" class="edge">
<title>Node4&#45;&gt;Node5</title>
<g id="a_edge4_Node000004_Node000005"><a xlink:title=" ">
<path fill="none" stroke="#63b8ff" d="M667.96,-56.34C675.94,-57.12 684.05,-57.92 692.1,-58.72"/>
<polygon fill="#63b8ff" stroke="#63b8ff" points="691.62,-62.19 701.92,-59.69 692.31,-55.22 691.62,-62.19"/>
</a>
</g>
</g>
<!-- Node7 -->
<g id="Node000007" class="node">
<title>Node7</title>
<g id="a_Node000007"><a xlink:href="class_network_manager.html#a8c95ebaf4720e37c5dfbe3433970c209" target="_top" xlink:title=" ">
<polygon fill="white" stroke="#666666" points="866.38,-39 707.88,-39 707.88,-19 866.38,-19 866.38,-39"/>
<text xml:space="preserve" text-anchor="middle" x="787.12" y="-25.5" font-family="Helvetica,sans-Serif" font-size="10.00">NetworkManager::onReadyRead</text>
</a>
</g>
</g>
<!-- Node4&#45;&gt;Node7 -->
<g id="edge6_Node000004_Node000007" class="edge">
<title>Node4&#45;&gt;Node7</title>
<g id="a_edge6_Node000004_Node000007"><a xlink:title=" ">
<path fill="none" stroke="#63b8ff" d="M667.96,-40.08C677.31,-39.2 686.84,-38.31 696.25,-37.43"/>
<polygon fill="#63b8ff" stroke="#63b8ff" points="696.49,-40.92 706.12,-36.5 695.84,-33.95 696.49,-40.92"/>
</a>
</g>
</g>
<!-- Node6 -->
<g id="Node000006" class="node">
<title>Node6</title>
<g id="a_Node000006"><a xlink:href="class_network_manager.html#ac6ae166f8298c7dcd6c047af4e032417" target="_top" xlink:title=" ">
<polygon fill="white" stroke="#666666" points="1068.75,-80 906.5,-80 906.5,-60 1068.75,-60 1068.75,-80"/>
<text xml:space="preserve" text-anchor="middle" x="987.62" y="-66.5" font-family="Helvetica,sans-Serif" font-size="10.00">NetworkManager::connectionLost</text>
</a>
</g>
</g>
<!-- Node5&#45;&gt;Node6 -->
<g id="edge5_Node000005_Node000006" class="edge">
<title>Node5&#45;&gt;Node6</title>
<g id="a_edge5_Node000005_Node000006"><a xlink:title=" ">
<path fill="none" stroke="#63b8ff" d="M870.87,-68.83C878.82,-68.91 886.92,-69 894.95,-69.08"/>
<polygon fill="#63b8ff" stroke="#63b8ff" points="894.7,-72.57 904.73,-69.17 894.77,-65.57 894.7,-72.57"/>
</a>
</g>
</g>
<!-- Node8 -->
<g id="Node000008" class="node">
<title>Node8</title>
<g id="a_Node000008"><a xlink:href="class_network_manager.html#aaf71ebc15b863819ebb5705bc41ad93d" target="_top" xlink:title=" ">
<polygon fill="white" stroke="#666666" points="1055.62,-42 919.62,-42 919.62,-10 1055.62,-10 1055.62,-42"/>
<text xml:space="preserve" text-anchor="start" x="927.62" y="-28.5" font-family="Helvetica,sans-Serif" font-size="10.00">NetworkManager::response</text>
<text xml:space="preserve" text-anchor="middle" x="987.62" y="-16.5" font-family="Helvetica,sans-Serif" font-size="10.00">Received</text>
</a>
</g>
</g>
<!-- Node7&#45;&gt;Node8 -->
<g id="edge7_Node000007_Node000008" class="edge">
<title>Node7&#45;&gt;Node8</title>
<g id="a_edge7_Node000007_Node000008"><a xlink:title=" ">
<path fill="none" stroke="#63b8ff" d="M866.86,-27.81C880.39,-27.61 894.45,-27.39 907.98,-27.19"/>
<polygon fill="#63b8ff" stroke="#63b8ff" points="907.74,-30.69 917.68,-27.04 907.63,-23.69 907.74,-30.69"/>
</a>
</g>
</g>
<!-- Node10&#45;&gt;Node3 -->
<g id="edge10_Node000010_Node000003" class="edge">
<title>Node10&#45;&gt;Node3</title>
<g id="a_edge10_Node000010_Node000003"><a xlink:title=" ">
<path fill="none" stroke="#63b8ff" d="M262.44,-20.48C282.87,-25.01 306.98,-30.35 328.48,-35.12"/>
<polygon fill="#63b8ff" stroke="#63b8ff" points="327.46,-38.48 337.98,-37.22 328.98,-31.64 327.46,-38.48"/>
</a>
</g>
</g>
<!-- Node10&#45;&gt;Node9 -->
<g id="edge11_Node000010_Node000009" class="edge">
<title>Node10&#45;&gt;Node9</title>
<g id="a_edge11_Node000010_Node000009"><a xlink:title=" ">
<path fill="none" stroke="#63b8ff" d="M278.5,-10C290.28,-10 302.68,-10 314.7,-10"/>
<polygon fill="#63b8ff" stroke="#63b8ff" points="314.56,-13.5 324.56,-10 314.56,-6.5 314.56,-13.5"/>
</a>
</g>
</g>
</g>
</svg>
