<?xml version="1.0" encoding="UTF-8" standalone="no"?>
<!DOCTYPE svg PUBLIC "-//W3C//DTD SVG 1.1//EN"
 "http://www.w3.org/Graphics/SVG/1.1/DTD/svg11.dtd">
<!-- Generated by graphviz version 15.0.0 (20260523.1842)
 -->
<!-- Title: Иерархия классов. Графический вид. Pages: 1 -->
<svg width="177pt" height="66pt"
 viewBox="0.00 0.00 177.00 66.00" xmlns="http://www.w3.org/2000/svg" xmlns:xlink="http://www.w3.org/1999/xlink">
<g id="graph0" class="graph" transform="scale(1 1) rotate(0) translate(4 62)">
<title>Иерархия классов. Графический вид.</title>
<!-- Node0 -->
<g id="Node000000" class="node">
<title>Node0</title>
<g id="a_Node000000"><a xlink:title=" ">
<polygon fill="#e0e0e0" stroke="#999999" points="54.25,-39 0,-39 0,-19 54.25,-19 54.25,-39"/>
<text xml:space="preserve" text-anchor="middle" x="27.12" y="-25.5" font-family="Helvetica,sans-Serif" font-size="10.00">QWidget</text>
</a>
</g>
</g>
<!-- Node1 -->
<g id="Node000001" class="node">
<title>Node1</title>
<g id="a_Node000001"><a xlink:href="class_admin_panel.html" target="_top" xlink:title="Панель администратора: список пользователей, удаление, смена роли. Отображается только при role == &quot;a...">
<polygon fill="white" stroke="#666666" points="163.62,-58 95.12,-58 95.12,-38 163.62,-38 163.62,-58"/>
<text xml:space="preserve" text-anchor="middle" x="129.38" y="-44.5" font-family="Helvetica,sans-Serif" font-size="10.00">AdminPanel</text>
</a>
</g>
</g>
<!-- Node0&#45;&gt;Node1 -->
<g id="edge5_Node000000_Node000001" class="edge">
<title>Node0&#45;&gt;Node1</title>
<g id="a_edge5_Node000000_Node000001"><a xlink:title=" ">
<path fill="none" stroke="#63b8ff" d="M65.9,-36.16C75.41,-37.96 85.54,-39.88 94.82,-41.64"/>
<polygon fill="#63b8ff" stroke="#63b8ff" points="66.69,-32.75 56.21,-34.32 65.39,-39.62 66.69,-32.75"/>
</a>
</g>
</g>
<!-- Node2 -->
<g id="Node000002" class="node">
<title>Node2</title>
<g id="a_Node000002"><a xlink:href="class_function_panel.html" target="_top" xlink:title="Панель с четырьмя вкладками для функций варианта: RSA, SHA&#45;1, Метод Ньютона, Стеганография (WAV).">
<polygon fill="white" stroke="#666666" points="168.5,-20 90.25,-20 90.25,0 168.5,0 168.5,-20"/>
<text xml:space="preserve" text-anchor="middle" x="129.38" y="-6.5" font-family="Helvetica,sans-Serif" font-size="10.00">FunctionPanel</text>
</a>
</g>
</g>
<!-- Node0&#45;&gt;Node2 -->
<g id="edge6_Node000000_Node000002" class="edge">
<title>Node0&#45;&gt;Node2</title>
<g id="a_edge6_Node000000_Node000002"><a xlink:title=" ">
<path fill="none" stroke="#63b8ff" d="M65.86,-21.85C73.73,-20.36 82.04,-18.78 89.95,-17.28"/>
<polygon fill="#63b8ff" stroke="#63b8ff" points="65.39,-18.38 56.21,-23.68 66.69,-25.25 65.39,-18.38"/>
</a>
</g>
</g>
</g>
</svg>
