<?xml version="1.0" encoding="UTF-8" standalone="no"?>
<!DOCTYPE svg PUBLIC "-//W3C//DTD SVG 1.1//EN"
 "http://www.w3.org/Graphics/SVG/1.1/DTD/svg11.dtd">
<!-- Generated by graphviz version 15.0.0 (20260523.1842)
 -->
<!-- Title: Var6Client/src/resulttable.h Pages: 1 -->
<svg width="168pt" height="84pt"
 viewBox="0.00 0.00 168.00 84.00" xmlns="http://www.w3.org/2000/svg" xmlns:xlink="http://www.w3.org/1999/xlink">
<g id="graph0" class="graph" transform="scale(1 1) rotate(0) translate(4 80)">
<title>Var6Client/src/resulttable.h</title>
<!-- Node1 -->
<g id="Node000001" class="node">
<title>Node1</title>
<g id="a_Node000001"><a xlink:title=" ">
<polygon fill="#999999" stroke="#666666" points="149.62,-76 15.88,-76 15.88,-56 149.62,-56 149.62,-76"/>
<text xml:space="preserve" text-anchor="middle" x="82.75" y="-62.5" font-family="Helvetica,sans-Serif" font-size="10.00">Var6Client/src/resulttable.h</text>
</a>
</g>
</g>
<!-- Node2 -->
<g id="Node000002" class="node">
<title>Node2</title>
<g id="a_Node000002"><a xlink:title=" ">
<polygon fill="#e0e0e0" stroke="#999999" points="77.5,-20 0,-20 0,0 77.5,0 77.5,-20"/>
<text xml:space="preserve" text-anchor="middle" x="38.75" y="-6.5" font-family="Helvetica,sans-Serif" font-size="10.00">QTableWidget</text>
</a>
</g>
</g>
<!-- Node1&#45;&gt;Node2 -->
<g id="edge1_Node000001_Node000002" class="edge">
<title>Node1&#45;&gt;Node2</title>
<g id="a_edge1_Node000001_Node000002"><a xlink:title=" ">
<path fill="none" stroke="#63b8ff" d="M75.09,-55.59C69.16,-48.32 60.76,-38.02 53.54,-29.15"/>
<polygon fill="#63b8ff" stroke="#63b8ff" points="56.31,-27.01 47.28,-21.47 50.89,-31.43 56.31,-27.01"/>
</a>
</g>
</g>
<!-- Node3 -->
<g id="Node000003" class="node">
<title>Node3</title>
<g id="a_Node000003"><a xlink:title=" ">
<polygon fill="#e0e0e0" stroke="#999999" points="160.12,-20 95.38,-20 95.38,0 160.12,0 160.12,-20"/>
<text xml:space="preserve" text-anchor="middle" x="127.75" y="-6.5" font-family="Helvetica,sans-Serif" font-size="10.00">QStringList</text>
</a>
</g>
</g>
<!-- Node1&#45;&gt;Node3 -->
<g id="edge2_Node000001_Node000003" class="edge">
<title>Node1&#45;&gt;Node3</title>
<g id="a_edge2_Node000001_Node000003"><a xlink:title=" ">
<path fill="none" stroke="#63b8ff" d="M90.59,-55.59C96.72,-48.24 105.42,-37.8 112.86,-28.87"/>
<polygon fill="#63b8ff" stroke="#63b8ff" points="115.32,-31.38 119.03,-21.46 109.94,-26.9 115.32,-31.38"/>
</a>
</g>
</g>
</g>
</svg>
